<svg width="16" height="16" viewBox="0 0 16 16" xmlns="http://www.w3.org/2000/svg" fill="#000000">
<path d="M 5.4947117,15.992407 C 5.3425124,15.962015 4.6911368,15.68455 4.3243524,15.493871 2.4003472,14.493646 0.88051135,12.595937 0.28590494,10.451355 0.07978899,9.7079509 7.4965039e-4,9.0829596 8.8866911e-6,8.1906705 -5.9756643e-4,7.4583497 0.02962024,7.1319086 0.15687124,6.496185 0.74936467,3.5361943 2.993508,1.0896811 5.8516899,0.28782635 7.4850851,-0.17041794 9.3535225,-0.0775646 10.892284,0.53832218 12.766229,1.2883658 14.273947,2.6952231 15.17586,4.5353421 c 0.412118,0.8408192 0.661499,1.6837982 0.787292,2.6612682 0.04939,0.3837828 0.04906,1.5855839 -5.56e-4,1.9881203 -0.156708,1.2715504 -0.567357,2.4304384 -1.225312,3.4579444 -0.949916,1.483451 -2.238351,2.565307 -3.807501,3.197031 -0.484147,0.194913 -0.657472,0.206369 -0.807047,0.05335 C 9.9824635,15.749463 10.008527,14.811132 10.002346,14.338855 9.982031,12.786404 9.974193,12.70513 9.8079249,12.322943 9.7667539,12.228307 9.6754361,12.076653 9.6049957,11.985933 l -0.128074,-0.164944 0.2565396,-0.03676 c 0.8200967,-0.117498 1.4589577,-0.347581 2.0101877,-0.723962 0.670355,-0.457721 1.083411,-1.1680691 1.28638,-2.212239 0.06679,-0.3436054 0.09563,-1.3081789 0.04835,-1.6173231 -0.0806,-0.527063 -0.335342,-1.1114805 -0.654636,-1.5018553 l -0.12579,-0.1537937 0.07701,-0.2714682 C 12.511682,4.8216215 12.475234,4.1457488 12.282923,3.5968052 12.221893,3.4226071 12.202233,3.3973755 12.108145,3.3725473 11.817045,3.29573 10.990913,3.6056596 10.274663,4.0603903 10.09624,4.173668 10.000736,4.2156188 9.9442083,4.205546 9.9004803,4.1977539 9.7217819,4.1605446 9.5470995,4.1228587 8.5479005,3.907292 7.4537045,3.907292 6.4545055,4.1228587 6.2798229,4.1605446 6.1002837,4.19788 6.0555289,4.2058265 5.9968709,4.2162418 5.9121171,4.1795687 5.7519029,4.0744467 5.1131668,3.6553509 4.2087996,3.3164996 3.876378,3.3717187 3.7754264,3.3884883 3.7681936,3.3995061 3.6934288,3.6504166 3.5721852,4.0573063 3.5414736,4.2653189 3.5438748,4.6633606 c 0.00178,0.2955467 0.017809,0.4224675 0.080718,0.6392449 l 0.078494,0.2704806 -0.1205814,0.146383 c -0.3163934,0.3840958 -0.578953,0.9859448 -0.659286,1.5112408 -0.047345,0.309586 -0.018395,1.274363 0.04852,1.6169898 0.1604866,0.8217386 0.4717814,1.4754353 0.9057442,1.9019963 0.3261816,0.320618 0.852202,0.631794 1.3666246,0.80845 0.2235801,0.07678 0.8215885,0.206583 1.1032857,0.23948 l 0.179166,0.02092 -0.1219942,0.157981 c -0.1584796,0.20523 -0.2729966,0.456349 -0.3338066,0.731989 -0.047604,0.215777 -0.052124,0.222606 -0.1793028,0.27082 -0.2804578,0.106325 -0.4270982,0.129883 -0.8196415,0.131673 -0.4021442,0.0018 -0.4098912,4.96e-4 -0.619243,-0.107039 -0.271113,-0.139258 -0.505567,-0.370834 -0.7201912,-0.711349 -0.310879,-0.493231 -0.7831582,-0.840723 -1.2011298,-0.883764 -0.2404702,-0.02476 -0.419749,0.02824 -0.419749,0.124087 0,0.07302 0.2516926,0.333828 0.473454,0.490603 0.075572,0.05343 0.2121364,0.197726 0.303476,0.320665 0.1489658,0.200501 0.2240338,0.341963 0.4989554,0.940257 0.150716,0.327993 0.5294758,0.629938 0.9482652,0.755952 0.094761,0.02851 0.3696476,0.06803 0.6108584,0.08781 0.358312,0.02939 0.4944557,0.02753 0.7439939,-0.01016 l 0.3054294,-0.04613 0.00772,0.56262 c 0.015519,1.131075 0.00863,1.191684 -0.1472746,1.296252 -0.082443,0.0553 -0.2501454,0.08385 -0.3616614,0.06158 z"/>
</svg>
