<svg width="512" height="512" fill="#ccc" viewBox="0 0 512 512" xmlns="http://www.w3.org/2000/svg">
<path style="stroke-width:32" d="m 107.2,175.04 q -8.64,7.68 -16.576,15.584 A 416,416 0 0 0 37.504,256 l 6.24,9.216 c 10.72,15.36 26.56,35.84 46.88,56.16 C 131.872,362.624 188.192,400 256,400 c 22.912,0 44.48,-4.256 64.64,-11.52 l 24.64,24.704 A 224,224 0 0 1 256,432 C 96,432 0,256 0,256 0,256 30.048,200.928 84.512,152.384 l 22.656,22.688 z m 329.472,284.288 -384,-384 22.656,-22.656 384,384 z M 361.504,293.632 A 112,112 0 0 0 218.336,150.464 l 26.336,26.336 a 80,80 0 0 1 90.528,90.528 z m -94.176,41.568 26.304,26.304 A 112,112 0 0 1 150.464,218.336 l 26.336,26.336 a 80,80 0 0 0 90.528,90.528 m 160.16,24.416 C 481.92,311.04 512,256 512,256 512,256 416,80 256,80 a 224,224 0 0 0 -89.28,18.816 l 24.64,24.672 A 192,192 0 0 1 256,112 c 67.84,0 124.128,37.376 165.376,78.624 A 416,416 0 0 1 474.496,256 q -2.752,4.16 -6.24,9.216 c -10.72,15.36 -26.56,35.84 -46.88,56.16 q -7.904,7.936 -16.544,15.552 z" />
</svg>
