<svg width="512" height="512" viewBox="0 0 4.8886857 5.0858667" xmlns="http://www.w3.org/2000/svg">
<path fill="#ff8800" d="M 0.0990448,1.0049395 A 0.13803531,0.13803531 0 0 0 0.2318712,0.86429971 0.13803531,0.13803531 0 0 0 0.1016492,0.72886884 0.14063975,0.14063975 0 0 0 -0.0389905,0.86429971 c 0,0.0781332 0.062507,0.14063979 0.1380353,0.14063979 z M 7.61e-5,3.4791572 c 0,0.033858 0.013022,0.054693 0.04688,0.054693 h 0.096364 c 0.036462,0 0.049484,-0.020836 0.049484,-0.054693 V 1.6274006 c 0,-0.036462 -0.013022,-0.057298 -0.049484,-0.057298 h -0.096364 c -0.033858,0 -0.04688,0.020836 -0.04688,0.057298 z m 0.8933228,0.054693 h 0.096364 c 0.036462,0 0.04688,-0.020836 0.04688,-0.054693 v -1.166789 c 0,-0.3724349 0.2786751,-0.60423 0.6380878,-0.60423 0.3568082,0 0.562559,0.2317951 0.562559,0.60423 v 1.166789 c 0,0.033858 0.010418,0.054693 0.04688,0.054693 h 0.091155 c 0.036462,0 0.052089,-0.020836 0.052089,-0.054693 V 2.3175771 c 0,-0.5260968 -0.2864884,-0.7969586 -0.716221,-0.7969586 A 0.73445202,0.73445202 0 0 0 1.0366431,1.8878445 L 1.0262254,1.6274006 c 0,-0.044276 -0.013022,-0.059902 -0.052089,-0.059902 h -0.078133 c -0.039067,0 -0.052089,0.020836 -0.052089,0.057298 v 1.8491522 c 0,0.036462 0.013022,0.057298 0.052089,0.057298 z m 3.0445902,0.823003 c 0.5182835,0 0.9896871,-0.2786751 0.9896871,-0.8829051 v -1.849152 c 0,-0.033858 -0.010418,-0.052089 -0.04688,-0.052089 h -0.088551 c -0.036462,0 -0.04688,0.018231 -0.04688,0.052089 l -0.00521,0.3542038 A 0.85425625,0.85425625 0 0 0 3.9379891,1.523223 c -0.5547457,0 -0.9558294,0.4115014 -0.9558294,0.9975004 0,0.5833945 0.4010837,0.9975004 0.9636427,0.9975004 A 0.84904737,0.84904737 0 0 0 4.7375521,3.0754691 v 0.3750393 c 0,0.5417235 -0.3828527,0.7318476 -0.8021675,0.7318476 a 1.0626114,1.0626114 0 0 1 -0.58079,-0.1562664 c -0.020836,-0.010418 -0.044275,-0.00781 -0.059902,0.013022 l -0.044275,0.072924 c -0.013022,0.031253 0.0026,0.052089 0.031253,0.07032 A 1.2501311,1.2501311 0 0 0 3.9379891,4.3568532 Z M 3.1644705,2.5207234 c 0,-0.4948436 0.3489949,-0.8125852 0.799563,-0.8125852 0.4557769,0 0.776123,0.3203461 0.776123,0.823003 0,0.4948435 -0.3203461,0.8021674 -0.776123,0.8021674 A 0.77091418,0.77091418 0 0 1 3.1644705,2.5207234 Z"/>
</svg>
