<svg xmlns="http://www.w3.org/2000/svg" width="512" height="512" viewBox="0 0 5.333 5.333"><g paint-order="markers stroke fill"><circle cx="2.667" cy="2.667" r="1.075" fill="none" stroke="#f2f2f2" stroke-linecap="round" stroke-miterlimit="2" stroke-width=".417"/><rect width=".425" height="1" x="2.454" y=".076" fill="#f2f2f2" rx=".212" ry=".212"/><rect width=".425" height="1" x="2.454" y="4.257" fill="#f2f2f2" rx=".212" ry=".212"/><rect width=".425" height="1" x="3.43" y="-1.615" fill="#f2f2f2" rx=".212" ry=".212" transform="rotate(30)"/><rect width=".425" height="1" x="3.43" y="2.567" fill="#f2f2f2" rx=".212" ry=".212" transform="rotate(30)"/><rect width=".425" height="1" x="3.43" y="-3.567" fill="#f2f2f2" rx=".212" ry=".212" transform="rotate(60)"/><rect width=".425" height="1" x="3.43" y=".614" fill="#f2f2f2" rx=".212" ry=".212" transform="rotate(60)"/><rect width=".425" height="1" x="2.454" y="-5.257" fill="#f2f2f2" rx=".212" ry=".212" transform="rotate(90)"/><rect width=".425" height="1" x="2.454" y="-1.076" fill="#f2f2f2" rx=".212" ry=".212" transform="rotate(90)"/><rect width=".425" height="1" x=".764" y="-6.233" fill="#f2f2f2" rx=".212" ry=".212" transform="rotate(120)"/><rect width=".425" height="1" x=".764" y="-2.052" fill="#f2f2f2" rx=".212" ry=".212" transform="rotate(120)"/><rect width=".425" height="1" x="-1.188" y="-6.233" fill="#f2f2f2" rx=".212" ry=".212" transform="rotate(150)"/><rect width=".425" height="1" x="-1.188" y="-2.052" fill="#f2f2f2" rx=".212" ry=".212" transform="rotate(150)"/></g><path fill="maroon" d="M0 2.979h5.333v2.354H0z" paint-order="stroke fill markers"/><path fill="#fff" d="M1.957 4.538q0 .12-.048.222-.046.1-.13.173-.084.072-.204.115-.117.04-.257.04-.138 0-.258-.04-.117-.04-.204-.112-.084-.071-.132-.17-.048-.1-.048-.217 0-.148.07-.253.072-.107.182-.178-.09-.066-.14-.158-.049-.092-.049-.214 0-.117.046-.209.046-.092.125-.155.079-.064.183-.097.105-.036.222-.036.122 0 .227.036.104.036.18.1.08.063.123.155.046.089.046.196 0 .219-.189.364.112.074.184.181.071.105.071.257zm-.415-.795q0-.081-.066-.135-.064-.053-.158-.053-.097 0-.163.053-.064.054-.064.135 0 .09.069.146.068.053.163.074.094-.02.155-.08.064-.058.064-.14zm.06.795q0-.053-.025-.096-.022-.044-.063-.077-.038-.033-.092-.056-.053-.023-.112-.036-.12.026-.201.095-.08.066-.08.17 0 .051.021.097.023.044.061.077.041.03.092.048.053.018.115.018.124 0 .203-.069.082-.071.082-.17zm1.672-.071q0 .112-.033.222t-.107.198q-.071.09-.183.146-.112.053-.268.053-.046 0-.14-.01-.094-.008-.191-.033-.094-.026-.168-.074-.071-.048-.071-.127 0-.064.048-.11.048-.048.122-.048.038 0 .072.015l.07.033.088.03q.048.016.112.016.084 0 .14-.026.058-.025.091-.066.036-.043.049-.097.015-.056.015-.112 0-.142-.071-.209-.069-.066-.173-.066-.044 0-.077.008-.03.007-.064.025-.03.023-.06.041-.029.015-.062.028-.03.01-.061.01-.076 0-.13-.048-.05-.049-.048-.125l.025-.703q.003-.082.061-.125.061-.046.133-.046h.614q.033 0 .069.01.035.008.06.028.029.018.047.049.017.03.017.074 0 .043-.017.073-.018.028-.046.049-.026.018-.061.025-.036.008-.07.008H2.53l-.015.331q.038-.013.08-.015.042-.005.086-.005.13 0 .24.04.109.039.188.113.079.074.122.18.043.105.043.24zm.796-.932q-.128 0-.182.079-.053.076-.053.198v.719q0 .11.058.178.062.066.176.066.115 0 .174-.066.06-.069.06-.178v-.719q0-.122-.053-.198-.053-.08-.18-.08zm0-.311q.152 0 .264.048.112.046.184.13.071.082.104.194.036.11.036.234v.7q0 .118-.038.22-.039.102-.115.178-.074.074-.184.117-.11.044-.252.044-.142 0-.252-.044-.11-.043-.186-.117-.074-.076-.112-.178-.038-.102-.038-.22v-.7q0-.125.033-.234.035-.112.107-.194.071-.084.183-.13.112-.048.265-.048z" aria-label="850" font-family="Blogger Sans" font-size="2.548" font-weight="700" letter-spacing="0" paint-order="stroke fill markers" style="line-height:1.7em;-inkscape-font-specification:'Blogger Sans Bold';font-variant-ligatures:no-common-ligatures;text-orientation:sideways" word-spacing="0"/></svg>
