<svg xmlns="http://www.w3.org/2000/svg" width="560" height="150" viewBox="0 0 5.347 1.49"><g fill="#b3b3b3"><path d="M.198 1.146c.037 0 .086-.007.086-.029v-.024c0-.016-.004-.024-.029-.019a.529.529 0 0 1-.048.003c-.049 0-.07-.021-.07-.086V.449h.13C.281.45.29.442.29.428V.405C.289.39.28.383.267.383h-.13V.205C.137.19.132.183.118.183H.081C.067.183.063.191.063.205v.178h-.1c-.014 0-.02.008-.02.022v.023c0 .014.006.021.02.021h.1v.554c0 .093.038.143.135.143zm.316-.009H.55c.014 0 .019-.008.019-.021V.668c0-.143.106-.232.245-.232.136 0 .215.089.215.232v.448c0 .013.005.021.018.021h.036c.014 0 .02-.008.02-.021V.67C1.103.469.992.365.827.365A.282.282 0 0 0 .57.506V.06C.569.045.564.037.55.037H.514C.5.037.495.045.495.06v1.057c0 .013.005.021.019.021z"/><path fill="#f80" d="M1.39.166a.053.053 0 0 0 .051-.054.053.053 0 0 0-.05-.052.054.054 0 0 0-.054.052c0 .03.024.054.053.054zm-.038.95c0 .013.005.021.018.021h.037c.014 0 .019-.008.019-.021V.405c0-.014-.005-.022-.019-.022H1.37c-.013 0-.018.008-.018.022zm.343.021h.037c.014 0 .018-.008.018-.021V.668c0-.143.107-.232.245-.232.137 0 .216.089.216.232v.448c0 .013.004.021.018.021h.035c.014 0 .02-.008.02-.021V.67c0-.202-.11-.306-.275-.306a.282.282 0 0 0-.259.141l-.004-.1c0-.017-.005-.023-.02-.023h-.03c-.015 0-.02.008-.02.022v.71c0 .014.005.022.02.022zm1.169.316c.199 0 .38-.107.38-.339v-.71c0-.013-.004-.02-.018-.02h-.034c-.014 0-.018.007-.018.02L3.172.54a.328.328 0 0 0-.308-.175c-.213 0-.367.158-.367.383 0 .224.154.383.37.383a.326.326 0 0 0 .304-.17v.144c0 .208-.147.281-.308.281a.408.408 0 0 1-.223-.06c-.008-.004-.017-.003-.023.005l-.017.028c-.005.012.001.02.012.027a.48.48 0 0 0 .252.067zM2.567.748c0-.19.134-.312.307-.312.175 0 .298.123.298.316 0 .19-.123.308-.298.308a.296.296 0 0 1-.307-.312z"/><path d="M3.534.166c.027 0 .05-.024.05-.054a.053.053 0 0 0-.05-.052.054.054 0 0 0-.054.052c0 .03.024.054.054.054zm-.039.95c0 .013.005.021.019.021h.037c.013 0 .018-.008.018-.021V.405c0-.014-.005-.022-.018-.022h-.037c-.014 0-.019.008-.019.022zm.343.021h.037c.014 0 .019-.008.019-.021V.668c0-.143.106-.232.244-.232.137 0 .216.089.216.232v.448c0 .013.004.021.018.021h.036c.013 0 .02-.008.02-.021V.67c0-.202-.111-.306-.276-.306a.282.282 0 0 0-.258.141l-.005-.1c0-.017-.005-.023-.02-.023h-.03c-.015 0-.02.008-.02.022v.71c0 .014.005.022.02.022zm1.185.019A.382.382 0 0 0 5.405.76a.381.381 0 0 0-.382-.395.381.381 0 0 0-.383.395c0 .225.164.396.383.396zM4.713.76c0-.19.131-.324.31-.324.177 0 .31.135.31.324 0 .19-.133.325-.31.325-.179 0-.31-.136-.31-.325z"/></g></svg>