<svg width="1920" height="1080" xmlns="http://www.w3.org/2000/svg">
    <path style="fill:#1a1a1a;stroke-width:.699997" d="M1278.317 888.152c-4.195-1.407-5.68-2.253-6.284-3.58-.736-1.615-.477-2.026 3.71-5.877 3.025-2.782 6.865-5.315 11.707-7.722l7.204-3.58 1.825 1.699c1.004.934 3.385 4.8 5.291 8.588 4.303 8.55 4.05 9.366-3.465 11.18-7.135 1.722-13.41 1.5-19.988-.708zm16.787-5.53c1.494-.402 1.494-.402-.3-3.141-2.37-3.62-2.9-3.584-9.594.654-2.768 1.752-2.78 1.778-1.05 2.27 2.18.619 8.944.753 10.944.216zm-101.231-9.042c-7.885-2.069-15.052-4.087-15.925-4.485-1.956-.892-2.166-4.242-.363-5.784 1.752-1.498 29.319-19.383 31.19-20.236 2.345-1.068 25.563 2.96 29.034 5.038 5.728 3.43 19.448 12.82 20.18 13.811 1.044 1.42.415 3.503-1.398 4.624-.814.504-6.679 2.09-13.031 3.525-6.353 1.435-15.907 3.68-21.233 4.989-5.325 1.309-10.68 2.357-11.9 2.33-1.22-.028-8.669-1.743-16.554-3.812zm33.292-7.337c8.055-1.924 15.178-3.5 15.829-3.5 2.686-.007 1.652-1.432-3.475-4.797-6.523-4.283-7.12-4.487-18.865-6.451l-9.257-1.548-5.793 3.818a710.19 710.19 0 0 1-11.216 7.218c-2.981 1.869-5.262 3.558-5.067 3.753.548.547 19.356 4.907 21.395 4.96.993.024 8.395-1.529 16.45-3.453zm-311.204 6.548c-57.22-2.13-102.584-7.399-129.073-14.992-8.762-2.512-12.808-4.213-17.726-7.455-6.118-4.032-6.5-5.121-6.5-18.524 0-10.972.076-11.61 1.641-13.732 4.988-6.76 17.907-11.969 41.953-16.914 20.815-4.28 57.253-8.447 84.007-9.605 5.694-.247 10.513-.708 10.71-1.026.196-.318.658-3.497 1.026-7.065.368-3.567.811-7.322.985-8.344.311-1.834.253-1.862-4.729-2.315-2.774-.252-8.975-1.1-13.78-1.884-23.325-3.807-44.069-15.006-61.614-33.263-16.656-17.334-26.61-36.427-30.93-59.329-1.315-6.976-1.49-10.97-1.74-39.951-.155-17.71-.008-57.4.328-88.2l.609-56-2.913-3.15c-27.066-29.264-36.852-72.97-25.26-112.813 4.51-15.5 14.997-33.971 25.43-44.792 2.998-3.111 3.164-3.502 3.711-8.75 1.727-16.569 6.97-30.985 16.17-44.46 5.945-8.71 13.283-15.828 23.519-22.812 4.657-3.178 10.933-8.067 13.947-10.864a500.437 500.437 0 0 1 10.723-9.621c2.885-2.495 6.422-5.605 7.86-6.91 3.645-3.307 5.147-4.286 7.743-5.048 3.454-1.014 47.538-9.728 49.212-9.728 2.327 0 3.462 1.897 6.165 10.312 3.895 12.122 3.735 12.49-5.876 13.56l-6.648.74-4.9 4.714c-2.695 2.593-6.7 6.062-8.899 7.709-3.201 2.396-4.264 3.713-5.329 6.604-1.933 5.245-4.154 12.362-4.682 15.002-.252 1.26-1.247 3.23-2.211 4.375-.964 1.146-1.616 2.083-1.449 2.083.168 0 2.952-1.297 6.188-2.883 13.646-6.687 28.512-12.298 35.982-13.58 3.171-.544 2.995-.367 14.771-14.862 6.785-8.351 8.407-9.971 9.966-9.955 1.273.014 3.858 1.68 8.163 5.262 3.465 2.883 6.858 5.91 7.541 6.728 1.519 1.818 1.008 3.838-1.468 5.814-.984.784-2.28 1.817-2.881 2.294-.896.711-.4.824 2.758.627 6.401-.4 19.017.824 27.576 2.675 23.873 5.161 48.321 17.041 65.093 31.63 9.533 8.293 8.328 7.917 11.608 3.614 1.557-2.042 5.274-7.021 8.26-11.064 4.246-5.745 5.84-7.397 7.303-7.567 2.382-.276 3.742 1.754 4.367 6.517.885 6.752 3.938 26.608 4.21 27.395.519 1.49-1.735 3.755-3.735 3.755-1.065 0-4.253-.787-7.082-1.75-2.83-.962-5.241-1.75-5.358-1.75-.116 0 1.615 2.441 3.848 5.425 2.232 2.984 5.335 7.317 6.894 9.63 3.668 5.437 13.025 24.128 15.73 31.42 4.663 12.572 9.595 35.673 9.749 45.665l.063 4.11 1.217-4.55c.669-2.503 1.582-5.232 2.03-6.066.992-1.851 8.833-4.627 12.165-4.306 2.97.286 3.736 1.89 5.922 12.394 2.39 11.48 2.688 20.68 1.364 42.078-3.142 50.76-4.651 76.75-7.4 127.4-.764 14.052-1.558 27.754-1.766 30.45-.209 2.694-1.007 15.767-1.774 29.05-2.053 35.548-3.584 45.192-9.792 61.697-9.357 24.875-27.155 46.361-48.537 58.595-14.493 8.293-29.572 12.469-47.558 13.17-6.464.253-11.868.647-12.01.876-.376.609 1.353 19.534 1.827 20.008.22.221 5.72.697 12.219 1.059s13.707.827 16.017 1.034l16.1 1.436c29.654 2.64 51.211 6.148 69.134 11.25 13.405 3.817 21.397 7.99 25.106 13.11 2.009 2.773 2.01 2.777 2.01 13.728 0 10.58-.062 11.05-1.799 13.72-2.407 3.702-5.887 6.077-13.262 9.05-20.814 8.39-57.502 13.895-114.79 17.221-12.24.711-94.08 1.392-107.449.894zm106.75-8.25c53.836-3.111 85.165-7.437 107.45-14.835 12.498-4.15 16.1-6.9 16.1-12.297 0-1.852-.325-3.368-.72-3.368-.397 0-2.574.936-4.839 2.08-11.278 5.692-39.824 11.778-72.142 15.38-57.83 6.445-144.341 7.04-204.049 1.406-45.139-4.26-75.66-10.21-91.524-17.84l-3.325-1.6v3.685c0 5.923 2.83 8.128 15.75 12.267 26.491 8.489 61.745 12.872 129.5 16.101 18.909.901 85.783.295 107.799-.978zm-28.7-15.414c52.173-1.37 102.468-7.104 130.2-14.846 10.356-2.892 21.35-8.577 21.35-11.042 0-1.12-3.455-3.837-7.487-5.891-3.535-1.8-11.598-4.49-20.164-6.728-20.606-5.382-58.396-10.153-95.024-11.997l-9.625-.485v3.507c0 7.638-6.5 10.935-28.35 14.38-8.207 1.294-12.703 1.547-27.65 1.556-29.662.016-49.876-3.413-55.654-9.444-1.792-1.87-1.886-2.266-1.419-6.003l.5-4-7.938.488c-50.058 3.073-86.58 8.56-109.236 16.41-6.722 2.329-9.118 3.51-12.102 5.96l-2.1 1.725 1.75 1.883c7.51 8.077 40.166 15.73 86.45 20.259 24.246 2.373 55.839 4.252 75.57 4.496 6.53.08 11.938.212 12.017.291.27.272 31.355-.058 48.912-.52zm-21.7-39.176c10.876-.355 21.669-2.262 29.126-5.146l4.626-1.789-.243-2.862c-1.242-14.582-1.658-20.352-1.762-24.453-.088-3.433-.407-4.899-1.128-5.176-1.505-.577-90.727 1.945-91.393 2.584-.316.303-1.179 6.32-1.918 13.372-.739 7.052-1.538 13.86-1.776 15.13-.388 2.064-.223 2.39 1.567 3.09 3.637 1.424 11.022 3.3 16.351 4.153 5.623.9 25.628 1.878 32.55 1.59 2.31-.095 8.61-.317 14-.493zm-26.866-45.526c.916-.142 12.06-.46 24.766-.708 60.981-1.19 66.662-1.626 79.334-6.096 5.81-2.05 15.516-6.558 15.516-7.207 0-.17-1.335.16-2.966.736-4.49 1.584-12.75 3.584-19.83 4.8-4.222.725-14.996 1.324-32.2 1.789-114.859 3.106-106.658 3.084-122.49.33-18.142-3.156-38.03-13.978-51.214-27.867-12.703-13.38-22.69-31.785-26.65-49.11-3.59-15.707-3.559-13.777-2.7-163.45.911-158.736 1.499-201.432 2.87-208.599 1.15-6.008 6.017-22.653 7.355-25.152 1.047-1.956 2.139-4.948 1.806-4.948-.157 0-2.156 2.599-4.443 5.775-6.479 8.998-10.153 16.902-13.262 28.525l-1.779 6.65-.512 58.1c-.282 31.955-.71 97.79-.952 146.3-.242 48.51-.609 97.964-.816 109.9-.52 30.041.682 42.333 5.62 57.404 4.62 14.108 11.267 25.617 21.767 37.692 16.173 18.6 40.733 32.054 64.696 35.44 4.1.579 52.047.319 56.084-.304zm-5.334-11.938c4.235-.178 20.3-.66 35.7-1.07 63.586-1.696 67.663-2.017 80.85-6.354 32.758-10.776 56.449-39.513 62.26-75.521.697-4.317 2.227-27.915 4.584-70.7a9312.698 9312.698 0 0 1 3.512-60.55c.562-9.24 1.65-27.51 2.42-40.6.768-13.09 1.56-25.532 1.76-27.65.924-9.747 2.56-46.884 2.19-49.7-.228-1.732-1.122-6.392-1.988-10.354-1.514-6.932-1.64-7.198-3.331-7-1.568.183-2.039 1.032-4.358 7.855-5.083 14.956-11.911 30.577-14.299 32.714-2.63 2.353-12.116 7.508-17.136 9.311-4.168 1.497-5.874 2.59-8.84 5.666-2.02 2.095-3.674 4.078-3.674 4.406 0 .327 2.079 1.158 4.62 1.846l4.62 1.25 6.448-2.13c3.546-1.171 8.528-3.073 11.072-4.226 5.629-2.553 8.273-5.84 12.5-15.537 3.84-8.812 4.51-9.8 6.652-9.8 3.265 0 4.636 1.23 4.098 3.677-.683 3.112-8.247 17.942-10.82 21.215-3.065 3.897-9.105 7.353-17.74 10.15-4.467 1.446-7.439 2.777-7.443 3.333-.01.51.794 4.406 1.774 8.66 1.703 7.395 1.727 7.795.552 9.094-.676.747-5.722 4.344-11.213 7.995-10.976 7.296-10.268 6.36-12.117 16.025-1.951 10.2-3.601 14.985-5.973 17.318-1.908 1.877-2.633 3.525-4.084 9.282-.97 3.85-3.638 12.985-5.928 20.3-4.11 13.135-4.168 13.437-4.662 24.282-.405 8.898-.718 11.17-1.653 11.981-1.474 1.279-13.434 5.387-15.682 5.387-2.27 0-3.278-1.267-7.102-8.925-1.778-3.561-3.466-6.468-3.751-6.46-.285.008-1.457 1.347-2.603 2.975-5.084 7.216-11.81 12.888-20.371 17.178-8.102 4.06-17.893 5.615-27.594 4.384-13.852-1.758-23.784-7.235-32.857-18.12-6.709-8.047-9.088-13.645-12.649-29.761-3.024-13.685-10.162-24.128-21.348-31.229-5.67-3.6-15.994-10.214-18.256-11.695-1.502-.984-1.592-.902-2.713 2.474-1.413 4.254-3.786 6.473-13.882 12.982-4.14 2.67-7.393 5.19-7.23 5.6.163.411 1.802 5.218 3.642 10.682l3.346 9.934-2.751 3.462c-8.73 10.983-16.612 19.72-17.793 19.72-1.81 0-3.509-1.872-3.509-3.867 0-1.563 2.319-4.614 12.075-15.891 1.829-2.114 3.325-4.428 3.325-5.143 0-.714-1.47-5.747-3.269-11.184-1.798-5.437-3.077-10.386-2.842-10.997.541-1.411 6.03-5.466 14.416-10.65 5.459-3.374 6.767-4.535 7.824-6.935 2.643-6.007 2.71-5.773-3.975-13.763-33.15-39.62-41.54-93.921-21.827-141.288 1.54-3.703 2.949-7.216 3.13-7.809.25-.816-1.075-1.54-5.489-3.003-12.828-4.249-14.447-5.241-13.486-8.27.917-2.887 2.655-2.87 11.834.116 6.856 2.23 20.985 7.712 28.17 10.93.526.235.059-2.568-1.26-7.561-4.68-17.728-5.525-21.073-5.515-21.837.017-1.31.945-2.33 2.586-2.842 2.156-.672 3.091.563 12.159 16.07 4.268 7.301 8.01 13.534 8.315 13.851.304.318.777-.613 1.05-2.067.77-4.105 2.725-7.344 6.65-11.015 3.84-3.592 12.434-8.015 16.73-8.61 4.545-.63 4.62-.732 2.558-3.436-1.043-1.367-4.15-6.38-6.903-11.138l-5.006-8.652-10.85-9.06c-16.621-13.88-20.28-18.269-20.296-24.347 0-.796-.488-3.078-1.08-5.07-.83-2.794-1.57-3.878-3.235-4.74-2.146-1.109-2.178-1.098-5.049 1.653-5.04 4.83-10.947 9.255-12.35 9.255-.747 0-1.892-.816-2.546-1.814-1.048-1.599-1.07-2.01-.192-3.448 1.326-2.169 13.703-12.774 16.523-14.157 2.155-1.058 2.332-1.022 5.712 1.147 4.272 2.741 6.639 5.053 7.956 7.774l1.003 2.07 2.005-6.46c3.364-10.84 4.813-13.399 9.674-17.095 2.379-1.809 6.845-5.71 9.925-8.672l5.6-5.383 5.292-.478 5.293-.478-1.405-4.503c-.83-2.664-1.796-4.502-2.364-4.502-2.481 0-44.785 9.295-46.016 10.11-3.914 2.595-18.586 15.994-26.843 24.516-15.802 16.308-23.339 29.95-27.368 49.537-2.27 11.04-2.734 21.846-2.783 64.936-.026 22.907-.198 50.155-.381 60.55-.185 10.395-.528 64.89-.763 121.1-.446 106.38-.346 111.434 2.466 124.315 7.82 35.833 35.328 64.604 69.301 72.485 13.146 3.05 21.712 3.364 54.271 1.994zm49.882-148.399c8.637-2.036 18.477-8.38 24.084-15.526 5.163-6.58 7.536-12.12 10.78-25.164 1.64-6.597 3.52-13.704 4.179-15.794l1.198-3.799-2.6-9.28c-1.442-5.149-2.417-9.96-2.188-10.807.6-2.228 10.723-13.737 12.764-14.513.958-.365 2.903-.667 4.321-.673 3.262-.014 3.623-.287 6.015-4.54 6.138-10.914 5.947-10.698 11.946-13.548 3.09-1.468 7.902-3.537 10.693-4.597 2.792-1.06 5.075-2.216 5.075-2.57 0-.353-1.291-3.711-2.87-7.463-3.878-9.217-4.237-10.555-3.308-12.336.427-.817 2.956-4.089 5.62-7.27 4.892-5.84 8.7-8.507 13.69-9.586 1.254-.271 2.604-1.098 3-1.838.396-.74 1.24-7.162 1.875-14.271 1.076-12.049 1.075-13.652-.016-23.623-3.138-28.644-13.23-52.753-30.997-74.047-13.867-16.62-31.2-28.654-52.792-36.656-19.939-7.39-41.74-9.146-61.88-4.986-9.882 2.041-25.09 7.648-32.46 11.966l-2.998 1.757 1.332 1.885c.732 1.036 2.983 4.877 5.001 8.534 2.019 3.658 5.706 9.6 8.193 13.205 6.41 9.29 6.41 9.29-6.788 12.704-5.674 1.468-14.229 5.905-16.595 8.608-2.518 2.875-3.566 6.089-4.335 13.284-.415 3.885-.858 5.178-2.125 6.203-.88.713-1.838 1.296-2.128 1.296-1.469 0-4.592-3.5-7.39-8.28-3.436-5.87-3.528-5.86-2.08.206.896 3.752.882 4.303-.133 5.425-.622.687-1.604 1.249-2.182 1.249-.578 0-4.375-1.631-8.437-3.625-4.884-2.397-8.317-3.643-10.132-3.675l-2.745-.05-2.668 6.65c-14.357 35.79-13.171 75.855 3.213 108.525 7.265 14.487 19.08 29.875 29.235 38.075 2.997 2.42 8.46 6.098 12.14 8.174 8.396 4.737 13.47 8.795 18.532 14.823 6.756 8.044 10.014 15.454 13.258 30.157 3.256 14.757 11.122 25.686 22.897 31.812 3.089 1.606 7.305 3.376 9.37 3.931 4.922 1.324 15.921 1.349 21.437.048zm-15.575-18.64c-18.725-3.726-30.208-23.136-24.936-42.15 2.435-8.781 8.357-15.507 17.579-19.967 5.063-2.448 5.525-2.539 12.983-2.539 7.53 0 7.871.07 13.075 2.64 6.842 3.378 12.819 9.648 15.704 16.47 1.821 4.307 1.983 5.406 1.986 13.44 0 8.106-.141 9.056-1.942 12.901-6.243 13.33-21.429 21.796-34.449 19.206zm16.107-9.858c4.33-2.228 9.671-7.825 11.707-12.266 1.238-2.7 1.533-4.659 1.553-10.332.023-6.355-.164-7.387-2.033-11.2-7.293-14.882-25.487-18.646-37.89-7.839-1.567 1.366-3.93 4.476-5.25 6.911-2.32 4.28-2.401 4.686-2.401 12.128 0 7.088.16 8.015 2.006 11.66 2.656 5.24 6.971 9.356 12.051 11.495 3.6 1.515 4.967 1.711 10.443 1.498 5.086-.199 6.977-.595 9.814-2.055zm-16.464-9.03c-.963-.38-2.945-1.855-4.406-3.277-7.238-7.045-5.108-19.138 4.171-23.678 3.163-1.547 4.375-1.782 7.37-1.427 9.22 1.092 15.34 10.655 12.44 19.439-.977 2.96-5.772 7.903-8.776 9.045-2.272.863-8.51.805-10.8-.101zm-3.913-77.256c-19.162-4.17-36.974-19.948-44.579-39.49-2.758-7.086-4.008-14.234-4.008-22.912 0-16.522 5.628-31.206 16.385-42.756 9.07-9.737 17.815-15.081 29.766-18.19 9.19-2.391 21.536-2.519 30.149-.312 17.79 4.56 32.379 16.55 40.94 33.65 7.017 14.015 8.057 34.014 2.587 49.764-6.992 20.135-24.966 35.913-45.773 40.178-6.521 1.337-19.474 1.372-25.467.068zm28.413-8.427c8.874-2.799 14.851-6.227 21.097-12.103 7.411-6.972 11.687-13.64 15.027-23.433 2.611-7.655 2.678-8.099 2.702-17.998.027-11.594-1.026-16.138-6.075-26.216-16.686-33.305-61.237-40.078-86.765-13.19-8.146 8.58-12.961 18.046-14.935 29.36-1.326 7.608-1.324 11.799.013 19.462 4.023 23.072 20.865 40.948 42.936 45.574 7.187 1.507 18.64.865 26-1.456zm-19.95-5.98c-11.658-1.035-21.285-5.935-29.701-15.12-4.786-5.223-9.099-13.225-11.067-20.534-1.862-6.915-1.67-18.483.417-25.17 4.561-14.614 12.966-24.615 25.65-30.523 12.86-5.99 26.324-5.84 39.2.439 12.493 6.09 21.142 16.626 25.248 30.754 1.983 6.824 1.838 18.958-.31 25.882-4.34 13.993-12.59 23.862-24.846 29.725-8.934 4.274-15.005 5.396-24.591 4.546zm12.6-8.012c12.184-2.57 22.547-10.923 27.61-22.255 4.006-8.969 4.833-15.977 2.961-25.107-4.172-20.361-20.772-33.747-40.371-32.555-19.848 1.208-34.459 15.113-37.523 35.713-1 6.727.046 13.623 3.155 20.798 5.252 12.119 14.05 19.8 26.38 23.028 6.28 1.645 11.278 1.75 17.788.378zm-17.866-7.535c-14.443-4.925-23.084-17.044-23.084-32.377 0-14.532 9.532-27.661 23.164-31.904 7.43-2.312 18.009-1.484 24.632 1.929 1.705.879 1.82 1.129.925 2.024-.562.561-1.438 1.022-1.946 1.024-.509 0-1.952.628-3.207 1.393-7.009 4.274-6.719 14.46.52 18.308 5.085 2.701 11.433.672 13.91-4.446.826-1.705 1.502-3.988 1.502-5.074v-1.973l1.394 1.772c4.311 5.482 6.078 16.598 3.951 24.872-2.353 9.157-7.474 16.697-14.268 21.007-7.861 4.988-18.909 6.372-27.493 3.445zm68.09 134.555c2.32-.644 2.63-.99 2.67-2.97.256-12.772 1.218-18.457 5.174-30.574 4.758-14.577 7.454-24.395 6.804-24.782-.26-.155-2.064.048-4.01.451-1.947.403-4.445.505-5.553.227-3.182-.798-6.975-5.148-8.755-10.04-.876-2.406-1.776-4.375-2-4.375-.226 0-1.102.806-1.947 1.79l-1.538 1.79 1.75 6.435c.963 3.54 1.96 6.639 2.216 6.888.255.249 2.197 1.175 4.315 2.058 7.108 2.964 7.236 3.115 6.755 7.953-.406 4.085-4.031 21.352-7.759 36.955-.988 4.136-1.796 7.837-1.796 8.225 0 .88.406.877 3.675-.03zm-7.209-16.86c3.396-14.794 5.759-27.27 5.36-28.308-.36-.937-3.925-1.467-3.925-.583 0 1.415-5.09 22.358-6.246 25.7l-1.404 4.063 1.42 3.601c1.66 4.215 2.057 4.93 2.49 4.498.175-.176 1.213-4.213 2.305-8.972zm20.526-48.534c3.378-.553 6.469-1.209 6.868-1.456 1.19-.734 1.948-3.394 4.123-14.451 1.136-5.778 2.395-10.902 2.798-11.387.402-.486 5.139-3.806 10.526-7.378 5.981-3.968 9.781-6.934 9.762-7.621-.017-.62-.579-3.783-1.246-7.032l-1.215-5.906-3.324-1.365c-1.829-.75-3.477-1.212-3.663-1.026-.186.186.489 2.198 1.5 4.471 1.011 2.273 2.297 5.66 2.856 7.525 1.245 4.15.596 5.138-4.901 7.458-1.994.842-7.196 3.135-11.559 5.095l-7.934 3.564-3.378 6.732c-1.858 3.703-3.812 7.092-4.34 7.531-.53.44-2.962 1.12-5.406 1.514-2.444.394-4.566.838-4.716.988-.15.15.519 1.972 1.486 4.049.967 2.077 1.762 4.091 1.767 4.476.014 1.025 2.693 5.253 3.32 5.238.294-.007 3.298-.465 6.676-1.019zM791.26 414.918c.136-37.634.33-69.62.429-71.082l.18-2.657-1.577 1.483c-2.856 2.682-9.385 12.293-12.942 19.05-5.213 9.902-9.68 24.403-11.594 37.63-.86 5.947-.429 23.96.73 30.45 3.19 17.887 10.452 35.127 20.42 48.476 2.084 2.79 3.86 5.075 3.947 5.074.087 0 .27-30.79.407-68.424zm316.504 16.507c2.008-5.207 2.096-5.9 2.096-16.395 0-30.06-9.465-60.518-26.71-85.942-8.307-12.248-18.16-22.893-29.654-32.038-17.943-14.276-42.443-24.81-67.365-28.966-10.109-1.685-33.48-1.17-44.97.992-9.911 1.864-24.903 6.294-32.875 9.713-5.291 2.27-15.124 7.32-16.047 8.243-.315.315 6.268 6.595 11.733 11.194 2.088 1.756 2.492 1.864 3.837 1.016 3.935-2.48 16.251-8.147 22.852-10.514 22.216-7.965 47.918-8.993 71.75-2.869 20.609 5.296 43.39 18.4 58.454 33.624 20.642 20.86 34.017 46.878 39.258 76.36 1.699 9.56 2.206 27.537 1.116 39.55l-.572 6.3 2.5-2.416c1.63-1.575 3.23-4.307 4.597-7.852zm-19.603-123.91c0-2.105-1.635-13.618-2.044-14.395-.3-.568-1.37.344-3.058 2.607-1.43 1.914-2.598 3.631-2.598 3.816 0 .185-.788 1.124-1.75 2.087-2.193 2.192-2.268 3.895-.175 3.967.866.03 3.15.636 5.075 1.346 4.276 1.578 4.55 1.613 4.55.573zm-134.423-50.397c3.863-1.994 7.023-3.817 7.023-4.052 0-.234-1.347-1.552-2.993-2.928l-2.994-2.502-4.181 5.268c-6.165 7.767-6.21 7.84-4.945 7.84.587 0 4.228-1.632 8.09-3.626zM633.98 839.676c-15.317-.346-17.125-.511-17.951-1.642-1.08-1.479-.699-3.475.948-4.966 1.291-1.168 37.216-17.847 43.644-20.263 6.386-2.4 6.205-2.81 10.139 23.048.218 1.434-.063 2.553-.835 3.325-1.274 1.274-1.483 1.277-35.945.498zm28.823-8.085c-.06-.77-.48-3.675-.935-6.456l-.826-5.056-3.47 1.758c-1.91.967-6.37 3.035-9.915 4.594-3.545 1.56-7.862 3.516-9.595 4.348l-3.15 1.512 9.45.35c17.134.635 18.566.553 18.441-1.05zm53.296-52.324c-1.3-3.568-4.652-15.87-4.985-18.299-.392-2.86-.143-3.384 5.794-12.197 6.41-9.514 8.138-10.993 10.676-9.133a491.44 491.44 0 0 0 5.42 3.84c5.717 4.005 8.658 6.886 8.658 8.479 0 1.252-18.764 26.493-20.554 27.649-1.294.836-4.664.608-5.01-.34zm8.123-15.05a243.075 243.075 0 0 1 6.007-7.605l2.977-3.579-1.547-1.403c-1.973-1.79-5.376-3.96-5.656-3.608-.118.148-1.258 1.845-2.533 3.77s-2.945 4.197-3.712 5.05c-1.117 1.243-1.31 2.153-.976 4.598.418 3.043 1.593 6.802 2.127 6.802.156 0 1.646-1.812 3.313-4.025zm484.338-74.76c-2.887-.504-10.89-1.88-17.785-3.057-8.5-1.451-12.964-2.529-13.867-3.346-1.269-1.148-1.31-2.09-.871-19.783.254-10.218.756-19.13 1.117-19.804 1.645-3.074 3.386-1.657 24.89 20.255 11.625 11.844 21.276 22.074 21.448 22.732.172.659-.142 1.848-.699 2.643-.836 1.193-1.706 1.43-4.998 1.36-2.191-.047-6.347-.498-9.235-1zm-.687-9.207c-.818-1.04-6.669-7.174-13-13.63l-11.513-11.737V677.878l2.275.406c6.321 1.126 21.991 3.73 22.8 3.79.61.045.418-.578-.562-1.824zm-468.63 5.013c-1.244-.941-1.291-1.321-.525-4.187 1.108-4.14 7.506-18.401 8.995-20.046 1.645-1.818 4.197-1.623 5.538.424 1.08 1.648.936 2.125-3.848 12.743-2.734 6.067-5.358 11.276-5.831 11.577-1.292.82-2.803.642-4.329-.511zm-6.59-100.485c-.75-.805-4.189-6.711-7.64-13.125-11.686-21.715-13.58-25.666-13.333-27.822.198-1.734 2.023-3.336 12.482-10.958a80142.01 80142.01 0 0 0 24.345-17.75c6.652-4.852 12.65-8.967 13.327-9.144 2.605-.682 3.615 2.057 7.173 19.449 1.92 9.385 3.332 17.72 3.139 18.521-.194.802-5.163 6.954-11.043 13.672-5.88 6.718-13.175 15.197-16.212 18.843-8.681 10.424-9.656 11.086-12.239 8.314zm12.973-20.4c5.327-6.251 11.801-13.72 14.387-16.597 3.334-3.71 4.615-5.648 4.404-6.66-.163-.786-1.146-6.469-2.183-12.629-1.037-6.16-2.098-11.443-2.356-11.742-.469-.54-35.855 24.307-40.124 28.173-.307.278 2.713 6.617 6.711 14.087s7.647 14.291 8.108 15.157c.46.867.957 1.575 1.103 1.575.146 0 4.623-5.114 9.95-11.364zm408.334-11.416c-13.135-2.125-15.285-2.768-15.774-4.72-.493-1.973 3.844-14.491 5.341-15.416 1.948-1.203 4.248-.01 13.933 7.22 12.556 9.376 13.379 10.418 10.5 13.296-1.67 1.671-1.252 1.683-14-.38zm-2.56-7.792c.553-.554-2.962-3.016-4.316-3.023-1.605-.008-.548 2.361 1.28 2.87 2.439.678 2.506.682 3.035.153zm-393.528-73.027c0-.963.16-1.357.353-.875.194.48.194 1.268 0 1.75-.194.48-.353.087-.353-.875zm425.488-14.552c-14.797-8.995-17.975-11.152-18.517-12.566-1.037-2.703 5.019-5.917 20.267-10.758 10.65-3.38 10.414-3.653 10.241 11.83-.072 6.433-.322 12.326-.555 13.096-1.082 3.568-3.486 3.231-11.436-1.602zm4.9-11.073c0-4.52-.219-5.947-.875-5.714-.481.17-3.001 1.05-5.6 1.954-2.599.904-4.725 1.857-4.725 2.117s2.038 1.79 4.528 3.4c2.49 1.611 4.714 3.23 4.941 3.598 1.154 1.867 1.731.082 1.731-5.355zm-501.219 12.636c-1.412-2.64-.425-3.84 11.59-14.088 22.846-19.487 24.177-20.523 26.343-20.523 2.674 0 2.993.825 7.277 18.772 2.555 10.705 3.211 14.513 2.655 15.4-.958 1.525-8.297 2.044-30.4 2.15l-16.508.078zm39.92-6.59c0-.726-.786-4.257-1.748-7.846-.961-3.589-1.749-7.215-1.75-8.059 0-.843-.32-1.73-.71-1.972-.95-.587-23.511 18.6-22.76 19.355.137.138 6.261.159 13.609.046 12.552-.191 13.36-.284 13.36-1.524zm422.783-25.396c-2.645-4.312-2.804-6.293-.969-12.072.927-2.918 1.685-5.877 1.685-6.575 0-.698.346-2.261.769-3.474.644-1.848 1.125-2.202 2.975-2.193 2.877.014 3.153.227 7.27 5.614 4.796 6.278 6.01 8.748 5.119 10.414-1.106 2.067-12.362 10.56-13.994 10.56-.893 0-2-.882-2.855-2.274zm7.588-10.554c.122-1.03-.115-1.871-.525-1.871-.41 0-.751.236-.756.525-.01.289-.21 1.276-.456 2.194-.333 1.244-.197 1.586.534 1.346.54-.178 1.08-1.165 1.203-2.194zm-435.249-31.446c-12.723-16.873-22.375-29.931-23.033-31.16-1.34-2.505-.96-4.762.95-5.632 1.402-.639 3.66-.385 11.724 1.32 38.616 8.167 39.37 8.35 40.613 9.836.968 1.159 1.225 2.792 1.225 7.786 0 7.173.172 6.902-6.65 10.435-2.31 1.197-7.698 4.181-11.974 6.633-4.275 2.451-8.293 4.457-8.928 4.457-.636 0-2.403-1.654-3.927-3.675zm9.98-7.7c2.13-1.251 6.263-3.62 9.185-5.263 4.775-2.685 5.314-3.2 5.314-5.09 0-2.572-.738-2.923-10.15-4.833-3.85-.781-11.095-2.362-16.1-3.511-5.005-1.15-9.352-2.1-9.659-2.11-.719-.023 2.424 4.571 10.163 14.857 3.404 4.524 6.456 8.225 6.783 8.225.326 0 2.335-1.024 4.465-2.275zm396.098-18.653c-8.658-2.056-11.01-2.876-12.094-4.213-1.127-1.393-1.2-1.865-.45-2.934 6.113-8.715 20.22-27.89 21.65-29.428 2.111-2.273 4.145-2.545 5.899-.791 1.1 1.1 1.17 2.784.798 19.316-.354 15.799-.56 18.28-1.613 19.444-1.502 1.659-1.21 1.688-14.19-1.394zm8.3-14.93v-9.26l-2.299 3.484c-1.264 1.916-3.767 5.353-5.562 7.637-1.795 2.284-3.105 4.41-2.91 4.725.194.315 1.2.586 2.237.604 1.036.017 2.828.464 3.983.993 4.539 2.078 4.55 2.057 4.55-8.184zm-474.599-9.91c-8.663-1.603-16.144-3.162-16.625-3.464-.481-.303-.875-1.623-.875-2.935 0-4.306.932-4.337 19.837-.649 9.302 1.815 17.622 3.738 18.488 4.274 1.711 1.059 2.091 3.646.735 5.002-1.271 1.271-4.402.948-21.56-2.228zm72.548-6.53c-4.633-1.191-26.858-10.2-27.573-11.176-1.258-1.716-1.08-3.323.527-4.778 1.739-1.573 2.962-1.252 17.848 4.695 12.679 5.065 13.65 5.635 13.65 8.021 0 1.576-1.725 3.814-2.8 3.633-.193-.033-.936-.21-1.652-.394zm387.074-49.411c-.822-.601-1.164-1.599-1.009-2.943.259-2.236 7.568-8.35 35.569-29.748a8022.539 8022.539 0 0 0 21.632-16.584c4.089-3.154 8.009-5.887 8.711-6.073.708-.188 1.878.262 2.625 1.01 1.273 1.272 1.348 2.56 1.348 23.08 0 21.64-.01 21.738-1.584 23.315-1.438 1.438-3.56 1.824-22.925 4.178-19.112 2.323-40.393 4.67-42.382 4.673-.408 0-1.3-.408-1.985-.908zm28.276-9.283c8.493-1.097 23.12-2.855 29.118-3.499l3.568-.383.454-9.938c.25-5.465.456-12.537.458-15.715v-5.777l-7.992 6.127c-8.781 6.733-36.02 27.81-38.438 29.743-1.741 1.392-2.526 1.426 12.83-.558zm-98.24-6.488c-.638-.704-1.157-1.885-1.155-2.625.01-1.767 26.707-36.755 48.03-62.937 5.644-6.93 7.326-7.897 9.665-5.557 2.449 2.448 2.59 2.225-16.753 26.55a4384.837 4384.837 0 0 0-13.29 16.8c-3.023 3.85-6.782 8.616-8.352 10.591a1166.7 1166.7 0 0 0-8.093 10.388c-6.46 8.38-7.797 9.283-10.053 6.79zm-310.558-6.815c-14.843-9.74-18.73-12.902-20.604-16.755-.936-1.925-2.239-5.474-2.895-7.888-1.137-4.182-1.134-4.454.06-5.775.69-.763 1.662-1.386 2.159-1.386.497 0 5.41 1.703 10.916 3.785 16.828 6.36 14.437 4.152 19.375 17.894 2.359 6.564 4.288 12.223 4.288 12.577 0 1.182-2.182 2.843-3.725 2.837-.838-.004-5.147-2.383-9.575-5.289zm1.052-12.014c-1.724-4.611-1.873-4.744-7.928-7.081a958.627 958.627 0 0 1-6.6-2.567c-2.283-.918-1.32 1.508 1.674 4.213 3.255 2.94 13.312 9.567 13.792 9.087.172-.171-.25-1.815-.938-3.652zm270.305-4.97c-.637-.705-1.158-1.867-1.158-2.583 0-1.287 7.37-14.935 15.587-28.862 3.719-6.305 4.464-7.175 6.137-7.175 3.197 0 2.92-.89 7.515 24.056 1.388 7.533 1.651 7.217-8.575 10.29-3.858 1.16-9.22 2.886-11.914 3.835-5.855 2.061-6.11 2.076-7.592.438zm11.976-9.19c.669-.368 3.027-1.164 5.24-1.77 2.472-.675 4.026-1.48 4.026-2.084 0-1.29-2.06-11.07-2.404-11.413-.207-.208-7.652 12.994-8.68 15.392-.313.731.345.686 1.818-.125zm-212.112-2.655c-1.336-1.496-4.022-16.803-4.022-22.928v-4.377l7.525-2.613c4.14-1.437 8.704-2.777 10.144-2.976 3.33-.463 4.993.783 4.48 3.355-.51 2.547-13.051 29.587-14.02 30.228-1.316.87-2.96.594-4.106-.69zm6.236-19.742c.83-1.889 1.337-3.606 1.127-3.815-.664-.664-4.385 1.936-4.375 3.057.015 1.666.804 4.226 1.297 4.208.244-.009 1.122-1.562 1.951-3.45z"/>
</svg>
