<svg width="800" height="800" version="1.1" viewBox="0 0 400 400" xmlns="http://www.w3.org/2000/svg">
<path d="m95.736 75.465c-21.8 0-40.475 17.154-40.475 38.962v0.0183l0.21362 169.69-5.4751 40.401 74.451-19.778h185.08c21.8 0 40.475-17.177 40.475-38.985v-151.35c0-21.802-18.665-38.952-40.457-38.962h-0.0189zm0 27.501h213.81c7.6596 8e-3 12.956 5.5801 12.956 11.461v151.35c0 5.886-5.306 11.461-12.975 11.461h-189.12l-37.824 11.428 0.38546-2.2289-0.20893-172.01c0-5.8855 5.3014-11.461 12.97-11.461z" color="#000000" fill="#ccc" stroke-width=".45455"/>
<g transform="matrix(13.063 0 0 15.53 -699.18 -1581.2)" fill="#ccc" stroke-width=".52512">
<path d="m62.57 116.77v-1.312l3.28-1.459q0.15835-0.0679 0.30538-0.1018 0.15835-0.0452 0.28276-0.0679 0.13572-0.0113 0.27145-0.0226v-0.0905q-0.13572-0.0113-0.27145-0.0452-0.12442-0.0226-0.28276-0.0566-0.14704-0.0452-0.30538-0.1131l-3.28-1.459v-1.3233l5.0671 2.3186v1.4138z" color="#000000"/>
<path d="m62.309 110.31v1.9023l3.4375 1.5293c0.0073 3e-3 0.0142 5e-3 0.02148 8e-3 -0.0073 3e-3 -0.0142 5e-3 -0.02148 8e-3l-3.4375 1.5293v1.8926l5.5918-2.5606v-1.75zm0.52539 0.8164 4.541 2.0801v1.0762l-4.541 2.0781v-0.73242l3.1191-1.3887 0.0039-2e-3c0.09141-0.0389 0.17834-0.0676 0.25781-0.0859h0.0059l0.0078-2e-3c0.09483-0.0271 0.17606-0.0474 0.24609-0.0606l0.49805-0.041v-0.57422l-0.24023-0.0195c-0.07606-6e-3 -0.15329-0.0198-0.23047-0.0391l-0.0156-4e-3c-0.07608-0.0138-0.16556-0.0318-0.26367-0.0527-0.08398-0.0262-0.17274-0.058-0.26562-0.0977l-0.0039-2e-3 -3.1191-1.3887z" color="#000000"/>
</g>
<g transform="matrix(13.024 0 0 14.955 -690 -1535.9)" fill="#ccc" stroke-width=".52512">
<path d="m69.171 117.75h5.429v1.2781h-5.429z" color="#000000"/>
<path d="m68.908 117.49v1.8027h5.9551v-1.8027zm0.52539 0.52344h4.9043v0.7539h-4.9043z" color="#000000"/>
</g>
</svg>
