<?xml version="1.0" encoding="UTF-8" standalone="no"?>
<svg
   width="600"
   height="583.98816"
   version="1.1"
   viewBox="0 0 300 291.99408"
   id="svg5"
   xmlns="http://www.w3.org/2000/svg"
   xmlns:svg="http://www.w3.org/2000/svg">
  <defs
     id="defs5" />
  <path
     fill="@android:color/white"
     d="M 24.599382,-1.7586162e-6 3.9932808,20.606099 275.38124,291.99406 l 20.6061,-20.6061 -46.19411,-46.19411 C 274.33445,204.58775 291.89713,176.80925 300,145.75472 282.28224,77.461882 220.58026,29.755749 150,29.678209 123.50091,29.910829 97.525204,36.869989 74.496004,49.896602 Z M 150,68.447922 c 42.85992,0 77.53942,34.679498 77.53942,77.539418 -0.0775,15.52726 -4.76867,30.58929 -13.55001,43.3833 l -28.47635,-28.45697 c 2.05479,-4.71052 3.17911,-9.76996 3.25665,-14.92633 0,-21.42027 -17.34944,-38.76971 -38.76971,-38.76971 -5.15637,0.0775 -10.21581,1.22254 -14.92633,3.25665 L 106.6167,81.997932 C 119.4107,73.216592 134.47274,68.525462 150,68.447922 Z M 30.880071,86.243222 C 16.283281,103.65081 5.7573008,124.17937 1.8146973e-6,146.21995 17.717762,214.51279 79.419754,262.21892 150,262.29646 c 16.57405,-0.15508 33.01241,-2.9465 48.69476,-8.25795 l -32.33394,-32.33394 c -5.38899,1.145 -10.91367,1.74464 -16.36082,1.82218 -42.85991,0 -77.539406,-34.6795 -77.539406,-77.53941 0.0775,-5.44715 0.67718,-10.97183 1.82217,-16.36082 z m 0,0"
     id="path_0"
     style="fill:#cccccc;fill-opacity:1;stroke-width:19.385;stroke-dasharray:none" />
</svg>
