<svg xmlns="http://www.w3.org/2000/svg" xml:space="preserve" width="512" height="512" fill="currentColor" viewBox="0 0 256 256"><path fill="#ccc" d="M50.897 210.134c-24.99-2.17-41.235-8.617-47.995-19.042-3.698-5.703-3.874-13.843-.456-21.114 3.291-7.003 13.671-17.81 26.003-27.073 12.77-9.592 16.351-14.66 30.324-42.912 15.15-30.63 22.551-38.591 41.713-44.863 8.008-2.62 10.12-2.883 18.608-2.308 16.695 1.13 28.198 6.123 43.306 18.799 16.76 14.063 33.683 22.17 53.29 25.53 27.894 4.781 41.391 14.606 40.242 29.292-.652 8.336-4.653 15.382-13.954 24.57-17.893 17.676-47.501 33.161-86.49 45.235-34.849 10.792-76.525 16.325-104.591 13.886zm57.803-9.352c27.444-4.107 58.933-13.247 77.277-22.43 16.817-8.419 21.288-13.977 14.708-18.283-4.439-2.905-28.289-2.571-45.745.641-46.445 8.546-89.07 26.084-87.9 36.166.25 2.147 1.273 3.169 4.162 4.154 5.428 1.851 24.304 1.726 37.498-.248zm-51.084-2.785c-4.907-5.831-3.255-10.668 6.663-19.508 27.879-24.848 111.554-43.093 140.508-30.637 6.152 2.646 8.022 5.18 7.819 10.589l-.138 3.659 4.075-2.443c20.705-12.415 33.289-27.08 31.486-36.692-3.493-18.62-43.46-24.728-99.583-15.22-50.397 8.537-101.168 28.58-126.495 49.936-6.284 5.3-11.513 12.64-13.335 18.72-2.389 7.973 3.648 15.79 15.517 20.093 6.803 2.466 19.882 4.625 28.831 4.759l7.486.112zm12.926-89.722c4.275-3.753 8.86-12.296 7.918-14.752-1.609-4.19-8.33-.206-12.8 7.59-5.732 9.992-2.965 14.052 4.882 7.162zm28.512-10.86c3.233-1.999 5.055-4.526 6.446-8.943.806-2.558-2.252-6.42-5.08-6.416-5.34.01-12.799 7.265-12.799 12.452 0 2.332 3.07 5.058 5.696 5.058 1.24 0 3.822-.968 5.737-2.152zm35.016-7.867c5.016-2.285 4.676-7.493-.72-11.028-8.865-5.809-19.48-1.129-14.54 6.41 1.837 2.805 7.215 5.758 10.628 5.836 1.026.024 3.11-.524 4.632-1.218zm31.97-2.579c1.045-2.722-2.423-6.677-8.52-9.716-9.696-4.831-15.485-3.06-10.541 3.225 2.573 3.271 12.062 8.115 15.931 8.131 1.374.004 2.782-.732 3.13-1.64z"/></svg>