<svg width="256" height="256" fill="none" xmlns="http://www.w3.org/2000/svg">
<g clip-path="url(#a)" transform="matrix(3.2829 0 0 3.2829 -1.674 0)">
<path d="M39.5 0c8.91 0 16.16.41 21.76.93 3.78.35 5.67.53 8.43 2.07 1.9 1.06 4.75 3.91 5.8 5.8 1.54 2.76 1.72 4.65 2.07 8.43.52 5.6.93 12.86.93 21.76 0 8.9-.41 16.16-.93 21.76-.35 3.78-.53 5.67-2.07 8.43-1.06 1.9-3.91 4.75-5.8 5.8-2.76 1.54-4.65 1.72-8.43 2.07-5.6.52-12.86.93-21.76.93-8.9 0-16.16-.41-21.76-.93-3.78-.35-5.67-.53-8.43-2.07-1.9-1.06-4.75-3.91-5.8-5.8-1.54-2.76-1.72-4.65-2.07-8.43-.52-5.6-.93-12.86-.93-21.76 0-8.9.41-16.16.93-21.76.35-3.78.53-5.67 2.07-8.43C4.57 6.9 7.42 4.05 9.31 3c2.76-1.54 4.65-1.72 8.43-2.07C23.34.41 30.6 0 39.5 0Zm-24 12c-1.66 0-3 1.34-3 3s1.34 3 3 3h21v9.3c-6.85 1.39-12 7.44-12 14.7 0 7.26 5.15 13.31 12 14.7V66c0 1.66 1.34 3 3 3s3-1.34 3-3v-9.3c6.85-1.39 12-7.44 12-14.7 0-7.26-5.15-13.31-12-14.7V18h21c1.66 0 3-1.34 3-3s-1.34-3-3-3zm24 21a9 9 0 1 1-.001 18.001A9 9 0 0 1 39.5 33z" fill="#ffb25b"/>
</g>
<defs>
<clipPath id="a">
<path fill="#fff" transform="translate(.5)" d="M0 0h325.5v78H0z"/>
</clipPath>
</defs>
</svg>
