<svg width="560" height="150" viewBox="0 0 5.3472222 1.4895833" version="1.1" xmlns="http://www.w3.org/2000/svg">
<g transform="matrix(1.0855237,0,0,1.0855237,-2.0372584,-3.5302664)" style="fill:#b3b3b3">
<path d="m 2.0592526,4.3081651 c 0.034016,0 0.07937,-0.00709 0.07937,-0.026929 v -0.022677 c 0,-0.014173 -0.00425,-0.02126 -0.026929,-0.017008 -0.011339,0.00142 -0.034016,0.00283 -0.043937,0.00283 -0.045354,0 -0.065197,-0.019842 -0.065197,-0.07937 V 3.6661191 H 2.123032 c 0.012756,0 0.019843,-0.00709 0.019843,-0.019842 v -0.02126 c 0,-0.012756 -0.00709,-0.019842 -0.019843,-0.019842 H 2.0025598 V 3.4407652 c 0,-0.012756 -0.00425,-0.019842 -0.017008,-0.019842 h -0.034016 c -0.012756,0 -0.017008,0.00709 -0.017008,0.019842 v 0.1644092 h -0.092126 c -0.012756,0 -0.018425,0.00709 -0.018425,0.019842 v 0.02126 c 0,0.012756 0.00567,0.019842 0.018425,0.019842 h 0.092126 v 0.5102352 c 0,0.085039 0.035433,0.1318108 0.1247248,0.1318115 z"/>
<path d="m 2.3498039,4.2996612 h 0.034016 c 0.012756,0 0.017008,-0.00709 0.017008,-0.019843 V 3.8673786 c 0,-0.1318108 0.097795,-0.2140154 0.2253539,-0.2140154 0.1261415,0 0.1984248,0.082205 0.1984248,0.2140154 v 0.4124401 c 0,0.012756 0.00425,0.019843 0.017008,0.019843 h 0.032598 c 0.012756,0 0.018425,-0.00709 0.018425,-0.019843 V 3.8702132 c 0,-0.1856689 -0.1020471,-0.2820467 -0.2537003,-0.2820467 -0.1204722,0 -0.1984248,0.059528 -0.2381098,0.1303935 V 3.3061198 c 0,-0.012756 -0.00425,-0.019842 -0.017008,-0.019842 h -0.034016 c -0.012756,0 -0.017008,0.00709 -0.017008,0.019842 v 0.9736989 c 0,0.012756 0.00425,0.019843 0.017008,0.019843 z"/>
<g style="fill:#ff8800">
<path d="m 3.1576771,3.4053322 c 0.025512,0 0.046772,-0.022677 0.046772,-0.049606 0,-0.025512 -0.02126,-0.048189 -0.046772,-0.048189 -0.026929,0 -0.049606,0.022677 -0.049606,0.048189 0,0.026929 0.022677,0.049606 0.049606,0.049606 z m -0.035433,0.8744865 c 0,0.012756 0.00425,0.019843 0.017008,0.019843 h 0.034016 c 0.012756,0 0.017008,-0.00709 0.017008,-0.019843 V 3.6250168 c 0,-0.012756 -0.00425,-0.019842 -0.017008,-0.019842 H 3.139252 c -0.012756,0 -0.017008,0.00709 -0.017008,0.019842 z"/>
<path d="m 3.4383052,4.2996612 h 0.034016 c 0.012756,0 0.017008,-0.00709 0.017008,-0.019843 V 3.8673786 c 0,-0.1318108 0.097795,-0.2140154 0.2253539,-0.2140154 0.1261415,0 0.1984248,0.082205 0.1984248,0.2140154 v 0.4124401 c 0,0.012756 0.00425,0.019843 0.017008,0.019843 h 0.032598 c 0.012756,0 0.018425,-0.00709 0.018425,-0.019843 V 3.8702132 c 0,-0.1856689 -0.1020471,-0.2820467 -0.2537003,-0.2820467 -0.1204722,0 -0.1984248,0.059528 -0.2381098,0.1303935 l -0.00425,-0.092126 c 0,-0.015591 -0.00425,-0.02126 -0.018425,-0.02126 h -0.028346 c -0.012756,0 -0.017008,0.00709 -0.017008,0.019842 v 0.6548019 c 0,0.012756 0.00425,0.019843 0.017008,0.019843 z"/>
<path d="m 4.5154693,4.5902118 c 0.1828343,0 0.350078,-0.097795 0.350078,-0.3118104 V 3.6250168 c 0,-0.012756 -0.00425,-0.019842 -0.017008,-0.019842 h -0.031181 c -0.012756,0 -0.017008,0.00709 -0.017008,0.019842 L 4.7989333,3.749741 C 4.7464924,3.6491113 4.6486974,3.5881665 4.5154693,3.5881665 c -0.1970075,0 -0.3387395,0.145984 -0.3387395,0.3529127 0,0.2069287 0.141732,0.3529127 0.3415741,0.3529127 0.1318108,0 0.2267712,-0.059527 0.2792121,-0.1559052 v 0.1318107 c 0,0.1913382 -0.1346454,0.2593696 -0.283464,0.2593696 -0.073701,0 -0.1474013,-0.017008 -0.2055114,-0.055275 -0.00709,-0.00425 -0.015591,-0.00283 -0.02126,0.00425 l -0.015591,0.025512 c -0.00425,0.011339 0.00142,0.018425 0.011339,0.025512 0.049606,0.032598 0.1346454,0.060945 0.2324407,0.060946 z M 4.2419265,3.9410792 c 0,-0.1757477 0.1233069,-0.287716 0.2820467,-0.287716 0.1615745,0 0.2749601,0.1133856 0.2749601,0.291968 0,0.1743303 -0.1133856,0.283464 -0.2749601,0.283464 -0.1587398,0 -0.2820467,-0.110551 -0.2820467,-0.287716 z"/>
</g>
<path d="m 5.1320034,3.4053322 c 0.025512,0 0.046772,-0.022677 0.046772,-0.049606 0,-0.025512 -0.02126,-0.048189 -0.046772,-0.048189 -0.026929,0 -0.049606,0.022677 -0.049606,0.048189 0,0.026929 0.022677,0.049606 0.049606,0.049606 z m -0.035433,0.8744865 c 0,0.012756 0.00425,0.019843 0.017008,0.019843 h 0.034016 c 0.012756,0 0.017008,-0.00709 0.017008,-0.019843 V 3.6250168 c 0,-0.012756 -0.00425,-0.019842 -0.017008,-0.019842 h -0.034016 c -0.012756,0 -0.017008,0.00709 -0.017008,0.019842 z"/>
<path d="m 5.4126316,4.2996612 h 0.034016 c 0.012756,0 0.017008,-0.00709 0.017008,-0.019843 V 3.8673786 c 0,-0.1318108 0.097795,-0.2140154 0.2253539,-0.2140154 0.1261415,0 0.1984248,0.082205 0.1984248,0.2140154 v 0.4124401 c 0,0.012756 0.00425,0.019843 0.017008,0.019843 H 5.93704 c 0.012756,0 0.018425,-0.00709 0.018425,-0.019843 V 3.8702132 c 0,-0.1856689 -0.102047,-0.2820467 -0.2537002,-0.2820467 -0.1204722,0 -0.1984248,0.059528 -0.2381098,0.1303935 L 5.459405,3.626434 c 0,-0.015591 -0.00425,-0.02126 -0.018425,-0.02126 H 5.412634 c -0.012756,0 -0.017008,0.00709 -0.017008,0.019842 v 0.6548019 c 0,0.012756 0.00425,0.019843 0.017008,0.019843 z"/>
<path d="m 6.5039688,4.316669 c 0.1998422,0 0.3514954,-0.1573225 0.3514954,-0.3642512 0,-0.2069288 -0.1516532,-0.3642513 -0.3514954,-0.3642513 -0.2012594,0 -0.3529126,0.1573225 -0.3529126,0.3642513 0,0.2069287 0.1516532,0.3642512 0.3529126,0.3642512 z M 6.2176702,3.9524178 c 0,-0.1743304 0.1218895,-0.2990546 0.2862986,-0.2990546 0.1629918,0 0.2848814,0.1247242 0.2848814,0.2990546 0,0.1743303 -0.1218896,0.2990545 -0.2848814,0.2990545 -0.1644091,0 -0.2862986,-0.1247242 -0.2862986,-0.2990545 z"/>
</g>
</svg>
