<svg width="512" height="512" viewBox="0 0 135.46666 135.46667" xmlns="http://www.w3.org/2000/svg">
<path style="fill:#ccc" d="M 58.788309,135.25515 C 25.456749,132.47635 5.5546703,114.39268 0.67145997,82.448305 -0.22660243,76.573471 -0.22325623,64.387455 0.67815807,58.182645 2.0319153,48.86381 4.7579673,40.254418 8.8569963,32.352319 18.068121,14.595152 33.400675,3.8357076 53.697951,0.8857136 67.91043,-1.1799292 84.938145,0.4413291 96.687224,4.9788199 c 8.382106,3.2371863 14.575636,7.2139741 20.559196,13.2008381 9.32625,9.331419 15.03515,21.370902 17.35058,36.590538 0.90309,5.936272 0.92,20.72958 0.0303,26.394635 -1.22279,7.784639 -3.91658,16.609734 -6.8609,22.476759 -2.33134,4.6456 -6.56736,10.50047 -10.30486,14.24294 -9.47641,9.4891 -21.850846,15.06479 -37.745885,17.00754 -4.632832,0.56623 -16.103175,0.76526 -20.927157,0.36308 z m 16.536796,-1.87828 c 11.396792,-1.64758 20.566919,-9.62391 23.695069,-20.61038 1.175336,-4.12796 1.182396,-10.78695 0.0158,-14.881305 -0.99387,-3.488049 -2.25355,-6.354117 -3.76194,-8.559238 -1.23415,-1.804202 -5.698834,-6.464326 -6.193227,-6.464326 -0.170773,0 -2.559935,1.342146 -5.309242,2.982544 -2.749307,1.640398 -6.142203,3.464453 -7.539758,4.05346 -1.397556,0.589007 -2.542905,1.176973 -2.5452,1.306589 -0.0029,0.129545 0.520372,0.340577 1.161482,0.468797 3.738904,0.747781 7.947589,4.215024 9.621421,7.926434 0.85002,1.884765 1.0412,2.852945 1.050606,5.320555 0.01425,3.65202 -0.743106,6.07903 -2.695265,8.641 -6.243716,8.19408 -18.993043,6.94876 -23.686247,-2.31361 -1.002249,-1.97802 -1.104423,-2.5285 -1.104423,-5.95033 0,-3.31001 0.124557,-4.03646 1.019511,-5.946305 1.870799,-3.9923 3.724501,-5.352428 12.410494,-9.106026 4.227139,-1.826732 8.958292,-3.978668 10.513695,-4.782071 10.669503,-5.51107 17.817753,-17.815158 17.831243,-30.692462 0.004,-3.521358 -0.14888,-4.597061 -1.01029,-7.123292 -1.94476,-5.703306 -4.88465,-8.927382 -14.814839,-16.2469 -6.620506,-4.879963 -8.133967,-6.590734 -7.350942,-8.309271 0.323361,-0.709716 0.81744,-0.933062 2.589421,-1.170589 3.860382,-0.517437 12.2024,-0.387551 14.02927,0.218458 l 1.65867,0.550215 1.69469,-1.869944 1.69469,-1.869944 -4.6731,-0.279853 c -5.507579,-0.329832 -6.772512,-0.554305 -5.973155,-1.060012 0.30026,-0.189956 3.644859,-0.347989 7.432445,-0.351167 l 6.886516,-0.0057 -0.59065,-1.413987 c -0.73324,-1.755306 -2.004446,-3.106445 -3.952976,-4.201587 -1.33629,-0.751044 -1.49955,-0.772692 -1.49955,-0.19892 0,0.569126 -0.30623,0.6154 -2.63809,0.398681 -3.480051,-0.323435 -5.225623,-1.09302 -6.60002,-2.9098348 C 85.464389,7.3048062 80.872559,4.7053942 76.840348,3.3500227 73.429309,2.2034474 68.729838,1.6907848 64.44431,1.9977439 c -4.275842,0.3062607 -4.193156,0.3670283 2.5452,1.8704852 2.644175,0.5899618 4.807596,1.2126731 4.807596,1.3837881 0,0.606622 -5.527658,0.267269 -9.70945,-0.596075 -2.333102,-0.481666 -4.241999,-0.7535385 -4.241999,-0.6041419 0,0.2867793 6.362837,3.3167379 8.766792,4.1747239 0.777694,0.277558 1.414001,0.636792 1.414001,0.798301 0,0.608575 -3.049197,1.8172568 -4.584477,1.8172568 -0.878893,0 -2.987671,-0.200928 -4.686175,-0.446508 -3.276377,-0.4737128 -6.385984,-0.08337 -7.796362,0.978767 -0.598419,0.450655 -0.400475,0.639328 1.986885,1.893843 3.126169,1.642763 3.656391,2.335149 3.995094,5.216965 0.224396,1.909277 0.176516,2.160642 -0.411568,2.160642 -0.971472,0 -5.071142,2.113285 -6.602578,3.40347 -1.098566,0.925525 -1.224947,1.174851 -0.754131,1.487881 0.31108,0.206815 1.498837,0.379911 2.639462,0.384658 2.735385,0.0114 6.458761,0.631746 8.361912,1.393236 l 1.53138,0.612735 -0.893185,0.674431 c -0.491253,0.370931 -1.699164,1.052172 -2.68425,1.513858 -0.985085,0.461685 -1.791064,0.980105 -1.791064,1.152034 0,0.171941 1.705907,0.312617 3.790906,0.312617 h 3.790907 l 6.696452,5.249885 c 7.735258,6.064278 12.684313,11.024163 14.213536,14.244662 1.891449,3.9833 1.569241,9.910365 -0.753824,13.866502 -3.690848,6.285458 -9.535556,10.347511 -17.948578,12.474277 -6.785441,1.715303 -10.441092,3.81093 -14.87979,8.529911 -3.186932,3.388165 -4.791843,6.010721 -6.359319,10.391637 -1.128762,3.15475 -1.181411,3.55832 -1.168846,8.959555 0.01211,5.18589 0.100058,5.9067 1.058713,8.67252 1.549803,4.47132 3.72484,7.89146 7.193845,11.31197 3.476662,3.42806 6.615517,5.40158 10.816115,6.80052 4.508945,1.50161 8.35757,1.89906 12.537609,1.2948 z M 82.91034,13.08789 c -0.239422,-0.387394 0.442802,-1.503172 0.904773,-1.479756 0.130114,0.0071 0.575154,0.26781 0.988927,0.580484 0.645329,0.487666 0.672136,0.619163 0.188531,0.924896 -0.750588,0.474512 -1.780973,0.461829 -2.082231,-0.02566 z m -53.316429,91.44167 c 1.539874,-0.52583 4.918408,-1.38661 7.507852,-1.91286 2.589446,-0.52625 4.835104,-1.15652 4.990353,-1.40062 0.155246,-0.24409 0.28487,-0.87964 0.288046,-1.412305 0.0096,-1.6084 1.121484,-4.921952 2.505434,-7.466382 0.718503,-1.321011 1.216502,-2.4917 1.106663,-2.601535 -0.109835,-0.109878 -1.432817,7.55e-4 -2.939951,0.245422 -7.113197,1.155497 -13.935012,6.684915 -16.134486,13.07781 -0.410151,1.19212 -0.745729,2.22577 -0.745729,2.297 0,0.27106 0.70919,0.0998 3.421818,-0.82653 z M 48.992027,86.230975 c 1.983532,-2.523751 5.422858,-5.31919 8.598534,-6.988775 1.415103,-0.743975 2.492076,-1.433525 2.393274,-1.53233 -0.09881,-0.09876 -1.164452,-0.436802 -2.368105,-0.75113 -4.124766,-1.077128 -7.359619,-3.366517 -8.938543,-6.326045 -1.197515,-2.244625 -1.174067,-7.549506 0.04512,-10.206508 1.091736,-2.379228 3.118676,-4.493283 5.541213,-5.77935 1.640056,-0.870684 2.326826,-1.000371 5.278924,-0.996865 2.78854,0.0029 3.712011,0.160911 5.179469,0.884009 7.689554,3.789054 9.170309,13.481374 3.017232,19.749389 -0.967023,0.985094 -1.646213,1.791063 -1.509314,1.791063 0.953171,0 7.078314,-2.583993 8.859131,-3.737365 C 80.803569,68.635901 85.16212,60.911972 84.445849,55.755404 83.793167,51.056517 78.819429,44.840962 73.493883,42.068967 68.512976,39.476354 66.22782,38.93342 60.296577,38.93342 c -4.527407,0 -5.654687,0.125413 -7.918388,0.880847 -10.833866,3.615459 -17.715762,11.729816 -19.110272,22.532699 -0.927768,7.187138 1.560466,15.111398 6.478558,20.632186 2.123191,2.383376 5.853323,5.161399 6.930374,5.161399 0.529656,0 1.339041,-0.667588 2.315182,-1.909576 z" />
</svg>
