<?xml version="1.0" encoding="UTF-8" standalone="no"?>
<!-- Created with Inkscape (http://www.inkscape.org/) -->

<svg width="512" height="512" viewBox="0 0 5.3333333 5.3333333" version="1.1" id="svg5" inkscape:version="1.2.2 (b0a8486541, 2022-12-01)" xml:space="preserve" sodipodi:docname="day_night_mode.svg" xmlns:inkscape="http://www.inkscape.org/namespaces/inkscape" xmlns:sodipodi="http://sodipodi.sourceforge.net/DTD/sodipodi-0.dtd" xmlns="http://www.w3.org/2000/svg" xmlns:svg="http://www.w3.org/2000/svg"><sodipodi:namedview id="namedview7" pagecolor="#ffffff" bordercolor="#000000" borderopacity="0.25" inkscape:showpageshadow="2" inkscape:pageopacity="0.0" inkscape:pagecheckerboard="0" inkscape:deskcolor="#d1d1d1" inkscape:document-units="mm" showgrid="false" inkscape:zoom="1.3011735" inkscape:cx="411.55157" inkscape:cy="259.38124" inkscape:window-width="2560" inkscape:window-height="1379" inkscape:window-x="0" inkscape:window-y="32" inkscape:window-maximized="1" inkscape:current-layer="layer1" /><defs id="defs2" /><g inkscape:label="Layer 1" inkscape:groupmode="layer" id="layer1"><path id="path39768" style="fill:#ffeeaa;stroke-width:1" d="M 1.7122077,3.4947863 C 1.6635847,3.4743413 1.6559007,3.4326523 1.6598267,3.2105926 l 0.00338,-0.1910285 0.029227,-0.025117 c 0.038199,-0.032828 0.083978,-0.032651 0.1170801,4.51e-4 0.025513,0.025513 0.025568,0.026037 0.025568,0.2429759 0,0.2122306 -5.583e-4,0.2179128 -0.023437,0.2386189 -0.031937,0.028903 -0.061338,0.034312 -0.099435,0.018294 z M 0.54261199,3.0013808 c -0.021139,-0.021139 -0.030449,-0.04078 -0.030449,-0.06424 0,-0.029362 0.018092,-0.052155 0.1380208,-0.1738849 0.1364662,-0.1385153 0.1867746,-0.1750147 0.2233761,-0.162062 0.039961,0.014142 0.065686,0.048037 0.065686,0.086548 0,0.034734 -0.012138,0.049738 -0.15442754,0.1908925 -0.1719114,0.17054 -0.1868456,0.1781083 -0.24220636,0.1227464 z m 2.29663501,5e-4 C 2.776985,2.9559818 2.5770946,2.7479144 2.5651964,2.7166197 c -0.0254,-0.066809 0.043677,-0.1364903 0.1102252,-0.111189 0.033874,0.012879 0.279636,0.2520426 0.3011547,0.2930692 0.022137,0.042206 0.018025,0.069161 -0.015695,0.102881 -0.038393,0.038393 -0.070056,0.038523 -0.1216343,4.999e-4 z M 1.569617,2.6714948 C 1.3856407,2.6303031 1.2336419,2.5446407 1.1042893,2.4092488 0.93489363,2.2319443 0.85582509,2.033121 0.85598619,1.784873 0.85625599,1.369341 1.1403319,1.0140627 1.5506908,0.91604409 c 0.077301,-0.018464 0.1137362,-0.021126 0.2323057,-0.016969 0.1210605,0.00424 0.1543926,0.00944 0.2395833,0.037345 0.1310478,0.042926 0.2440852,0.11083761 0.3450585,0.20730701 0.1399774,0.1337336 0.2269125,0.2916994 0.2650539,0.4816173 0.022677,0.1129155 0.015527,0.2936712 -0.016005,0.4046201 -0.0852,0.2997841 -0.3266736,0.541321 -0.6272218,0.6273861 -0.1039307,0.029762 -0.3178993,0.03697 -0.4198484,0.014144 z M 1.2733811,1.8555476 c 0.024608,-0.024607 0.030449,-0.039417 0.030449,-0.077197 0,-0.057204 0.03017,-0.1573646 0.065623,-0.2178606 0.071827,-0.122563 0.2312967,-0.2156562 0.3700742,-0.2160368 0.0996,-2.729e-4 0.1424993,-0.1149273 0.065206,-0.1742716 -0.020729,-0.015915 -0.1178818,-0.016934 -0.1904941,-0.002 -0.03036,0.00625 -0.095044,0.030347 -0.1437419,0.053559 -0.2078483,0.099072 -0.3550665,0.3268993 -0.3538354,0.5475779 3.406e-4,0.061032 0.010301,0.083308 0.046544,0.1040934 0.037031,0.021237 0.07766,0.014648 0.1101763,-0.017867 z M 0.06451149,1.8550113 c -0.047531,-0.047531 -0.034313,-0.1164541 0.027269,-0.1421849 0.030687,-0.012822 0.076012,-0.015253 0.2333716,-0.012517 0.2147894,0.00373 0.2305153,0.00833 0.2443729,0.071423 0.00735,0.033464 -0.015991,0.087317 -0.042204,0.097376 -0.00927,0.00356 -0.1125726,0.00647 -0.229552,0.00647 -0.1978875,0 -0.2141212,-0.00143 -0.2332575,-0.020567 z m 2.88988661,-0.005 c -0.033104,-0.033104 -0.033279,-0.078883 -4.469e-4,-0.11708 l 0.025122,-0.029227 0.1909832,-0.00348 c 0.2061083,-0.00376 0.2606275,0.00448 0.2809603,0.042473 0.018473,0.034517 0.012973,0.080507 -0.012924,0.1080738 -0.023113,0.024603 -0.025156,0.024813 -0.2407187,0.024813 -0.216939,0 -0.2174628,-5.21e-5 -0.2429758,-0.025568 z M 0.66747359,0.83651709 c -0.094091,-0.09379 -0.1462475,-0.1537668 -0.1511013,-0.1737574 -0.014491,-0.059681 0.046207,-0.1203786 0.1058878,-0.1058878 0.019991,0.00485 0.079967,0.05701 0.1737573,0.1511014 0.13589194,0.136328 0.14322924,0.1458094 0.14322924,0.1850818 0,0.054597 -0.032635,0.086691 -0.088151,0.086691 -0.037397,0 -0.049059,-0.0091 -0.18362204,-0.143229 z m 1.91787131,0.1226608 c -0.029359,-0.029359 -0.035771,-0.066057 -0.017594,-0.1007056 0.00859,-0.016372 0.0785,-0.091877 0.1553573,-0.1677886 0.1250669,-0.1235271 0.1434791,-0.137986 0.1753357,-0.1376895 0.039438,3.671e-4 0.062533,0.014225 0.080768,0.048463 0.02626,0.049306 0.016113,0.065407 -0.1410774,0.2238615 -0.1437379,0.1448936 -0.155635,0.15442755 -0.1927085,0.15442755 -0.025454,0 -0.046831,-0.00732 -0.060081,-0.0205684 z M 1.7149265,0.60525119 c -0.048,-0.019456 -0.05154,-0.034875 -0.055117,-0.2401039 -0.00274,-0.1569092 -3.01e-4,-0.2021887 0.012517,-0.232867 0.025731,-0.061582 0.094653,-0.074801 0.1421849,-0.027269 0.019137,0.019137 0.020568,0.03537 0.020568,0.2332581 0,0.1169793 -0.00291,0.2202777 -0.00647,0.2295519 -0.00699,0.01822 -0.056943,0.047755 -0.07895,0.046681 -0.00745,-3.631e-4 -0.023076,-0.00453 -0.034733,-0.00925 z" /><path id="path39760" style="fill:#aaccff;stroke-width:0.999998" d="M 2.6488487,5.269552 C 2.386008,5.249185 2.09147,5.1753651 1.8477426,5.0687712 1.395124,4.8708191 0.99705502,4.5200232 0.74653945,4.0983431 0.70059974,4.0210162 0.69624399,3.9831707 0.72923875,3.9480493 0.75655,3.9189775 0.78068315,3.9190711 0.89909968,3.9487046 1.3021676,4.0495724 1.7114243,4.0449118 2.1241991,3.9347534 2.5348588,3.8251592 2.9329983,3.5891558 3.2332072,3.2773713 3.5724927,2.9250033 3.7922893,2.4903018 3.8817459,1.9947273 3.9046597,1.8677881 3.9070725,1.8310019 3.9076988,1.5990094 3.90825,1.3950021 3.904845,1.3217546 3.8908901,1.2370724 3.8695302,1.1074813 3.8255131,0.92373561 3.7927644,0.82744947 3.7604896,0.73255678 3.7613327,0.70910206 3.7981384,0.67813442 3.836851,0.64555939 3.8523273,0.6465434 3.9319405,0.68664023 4.4410652,0.94302796 4.8600155,1.4014688 5.0744278,1.9368174 5.251758,2.3795784 5.2966056,2.8261496 5.2107566,3.2943137 5.0610157,4.1109012 4.4860377,4.8057794 3.7102054,5.1077748 3.3808112,5.2359925 2.9881503,5.2958439 2.6488487,5.269552 Z M 4.8078179,3.739264 c 0.037147,-0.041018 0.1096009,-0.2616335 0.1466028,-0.4463891 0.033835,-0.1689452 0.0424,-0.2845165 0.037105,-0.5006856 -0.00542,-0.2214217 -0.025182,-0.371927 -0.054007,-0.4113958 -0.024739,-0.033873 -0.081818,-0.038214 -0.1133221,-0.00862 -0.027386,0.025728 -0.028413,0.046816 -0.00868,0.1782743 0.047922,0.3192344 0.016577,0.6626621 -0.087934,0.9634475 -0.056633,0.1629909 -0.060898,0.1928137 -0.031976,0.2235994 0.02949,0.031391 0.084598,0.032258 0.1122113,0.00177 z M 4.7967805,2.0675533 c 0.039345,-0.039345 0.032224,-0.077711 -0.040742,-0.2194774 -0.035438,-0.068853 -0.07627,-0.137858 -0.090737,-0.1533457 -0.031762,-0.034002 -0.072239,-0.037032 -0.108949,-0.00815 -0.038501,0.030286 -0.034031,0.072086 0.017263,0.1614144 0.023482,0.040893 0.058571,0.1075001 0.077974,0.148016 0.02024,0.042259 0.044215,0.077986 0.056236,0.083799 0.034701,0.016781 0.063952,0.012752 0.088955,-0.012251 z" /></g></svg>
