<svg xmlns="http://www.w3.org/2000/svg" xml:space="preserve" width="512" height="512" viewBox="0 0 5.333 5.333"><path fill="#fea" d="M1.712 3.495c-.048-.02-.056-.062-.052-.284l.003-.191.03-.026c.038-.032.083-.032.117 0 .025.026.025.027.025.244 0 .212 0 .218-.023.238-.032.03-.062.035-.1.019zM.542 3c-.02-.02-.03-.04-.03-.064 0-.03.018-.052.138-.174.137-.138.187-.175.224-.162.04.014.065.048.065.087 0 .034-.012.05-.154.19-.172.171-.187.179-.242.123zm2.297 0a1.98 1.98 0 0 1-.274-.284c-.025-.067.044-.137.11-.112.034.013.28.252.302.293.022.043.018.07-.016.103-.039.039-.07.039-.122 0zm-1.27-.33a.894.894 0 0 1-.465-.262.853.853 0 0 1-.248-.624c0-.416.284-.77.695-.869a.7.7 0 0 1 .232-.017.7.7 0 0 1 .24.037c.13.043.244.111.345.208.14.133.227.291.265.481.022.113.015.294-.016.405a.922.922 0 0 1-.628.627 1.13 1.13 0 0 1-.42.014zm-.296-.815c.025-.025.03-.04.03-.078a.54.54 0 0 1 .066-.218.466.466 0 0 1 .37-.216c.1 0 .143-.114.066-.174-.021-.016-.118-.017-.19-.002a.818.818 0 0 0-.145.054.632.632 0 0 0-.353.547c0 .061.01.084.046.104.037.022.078.015.11-.017zm-1.208 0c-.048-.048-.035-.116.027-.142.03-.013.076-.015.233-.013.215.004.23.009.245.072.007.033-.016.087-.043.097a2.111 2.111 0 0 1-.23.007c-.197 0-.213-.002-.232-.021zm2.89-.005c-.034-.033-.034-.079-.001-.117l.025-.03.191-.003c.206-.004.26.005.281.043a.096.096 0 0 1-.013.108c-.023.024-.025.025-.24.025-.218 0-.218 0-.244-.026zM.666.837a.81.81 0 0 1-.15-.174C.501.603.562.543.621.557a.81.81 0 0 1 .174.151c.136.136.143.146.143.185C.94.948.907.98.851.98.814.98.802.97.667.837zm1.918.122C2.556.93 2.55.893 2.568.86c.008-.017.078-.092.155-.168.125-.124.144-.138.175-.138.04 0 .063.014.081.048.026.05.016.066-.14.224-.145.145-.157.155-.194.155a.084.084 0 0 1-.06-.02zm-.87-.354C1.667.585 1.663.57 1.66.365c-.003-.157 0-.202.012-.233.026-.061.095-.075.143-.027.019.02.02.035.02.233 0 .117-.003.22-.006.23-.007.018-.057.048-.08.047a.137.137 0 0 1-.034-.01z"/><path fill="#acf" d="M2.649 5.27A2.439 2.439 0 0 1 .747 4.099C.7 4.02.697 3.982.729 3.947c.028-.029.052-.029.17 0a2.4 2.4 0 0 0 1.225-.013 2.45 2.45 0 0 0 1.11-.658 2.46 2.46 0 0 0 .648-1.282c.023-.127.025-.164.026-.396 0-.204-.003-.277-.017-.362a3.135 3.135 0 0 0-.098-.41C3.76.733 3.76.71 3.798.678c.039-.032.054-.031.134.009A2.432 2.432 0 0 1 5.21 3.294 2.43 2.43 0 0 1 2.649 5.27Zm2.159-1.53c.037-.042.11-.262.146-.447.034-.17.043-.285.038-.5-.006-.222-.026-.373-.054-.412-.025-.034-.082-.038-.114-.009-.027.026-.028.047-.008.178.047.32.016.663-.088.964-.057.163-.061.193-.032.223.03.032.084.033.112.002zm-.011-1.672c.04-.04.032-.078-.041-.22a1.095 1.095 0 0 0-.09-.153c-.032-.034-.073-.037-.11-.008-.038.03-.034.072.018.161.023.04.058.107.078.148.02.042.044.078.056.084.035.017.064.013.089-.012z"/></svg>