<svg xmlns="http://www.w3.org/2000/svg" width="800" height="800" fill="none" stroke="currentColor" stroke-linecap="round" stroke-width="1.5" viewBox="0 0 24 24"><path fill="#ccc" stroke="none" d="M6.996 8.252c-1.098.006-1.967.03-2.72.168-.754.138-1.42.42-1.928.928-.582.581-.86 1.36-.98 2.261-.122.902-.118 1.977-.118 3.391v1c0 1.414-.004 2.49.117 3.393.121.901.399 1.678.98 2.26.582.581 1.359.859 2.26.98.902.121 1.979.117 3.393.117h8c1.414 0 2.49.004 3.393-.117.901-.121 1.678-.4 2.26-.98.581-.582.859-1.359.98-2.26.121-.902.117-1.979.117-3.393v-1c0-1.414.004-2.489-.117-3.39-.121-.903-.4-1.68-.98-2.262-.51-.509-1.177-.79-1.93-.928-.754-.138-1.621-.162-2.72-.168a.75.75 0 0 0-.753.746.75.75 0 0 0 .746.754c1.077.006 1.886.038 2.457.143.571.104.879.255 1.139.515.297.297.456.667.554 1.399.099.732.104 1.777.104 3.191v1c0 1.414-.005 2.46-.104 3.191-.098.732-.257 1.104-.554 1.4-.297.298-.669.457-1.4.555-.733.099-1.778.104-3.192.104H8c-1.414 0-2.46-.005-3.191-.104-.732-.098-1.104-.257-1.4-.554-.298-.297-.457-.669-.555-1.4-.099-.733-.104-1.778-.104-3.192v-1c0-1.414.005-2.46.104-3.191.098-.732.257-1.102.554-1.399.26-.26.568-.41 1.139-.515.571-.105 1.38-.137 2.457-.143a.75.75 0 0 0 .746-.754.75.75 0 0 0-.754-.746Z" color="#000" style="-inkscape-stroke:none"/><path fill="#ccc" stroke="none" d="M12 1.25a.75.75 0 0 0-.75.75v10.97l-1.68-1.958a.75.75 0 0 0-1.058-.082.75.75 0 0 0-.082 1.058l3 3.5a.75.75 0 0 0 .027.014.75.75 0 0 0 .041.041.75.75 0 0 0 .014.027.75.75 0 0 0 .226.075.75.75 0 0 0 .235.093.75.75 0 0 0 .027.012.75.75 0 0 0 .027-.012.75.75 0 0 0 .235-.093.75.75 0 0 0 .226-.075.75.75 0 0 0 .02-.029.75.75 0 0 0 .035-.04.75.75 0 0 0 .027-.013l3-3.5a.75.75 0 0 0-.082-1.058.75.75 0 0 0-1.058.082l-1.68 1.959V2a.75.75 0 0 0-.75-.75Z" color="#000" style="-inkscape-stroke:none"/></svg>