<svg xmlns="http://www.w3.org/2000/svg" xml:space="preserve" width="512" height="512" fill="currentColor" viewBox="0 0 256 256"><path fill="#ccc" d="M16.531 210.656C5.52 208.128.093 200.254 0 188.846L.045 49.362c2.313-10.567 12.992-16.986 24.39-16.738l209.754-.012c13.311-.03 21.823 13.58 21.81 24.944v135.515c-.026 9.467-11.418 19.1-22.372 17.894-71.8.33-143.608.448-215.405-.175l-1.691-.134zm145.803-75.921c-9.696 8.48-20.365 18.234-34.042 18.082-13.677-.152-23.512-7.743-32.25-16.234l-68.6 58.7 201.556.325c-21.293-19.645-44.627-40.787-66.664-60.873zm77.651-71.713c-22.22 19.576-44.302 39.378-65.83 59.717l65.808 61.422c.022-40.38.257-80.76.022-121.139zM82.042 122.693 16.034 62.88c.118 39.795-.29 79.598.295 119.386zm51.335 11.602c33.38-27.322 66.664-58.78 95.765-85.855l-202.743-.313c30.23 27.516 60.165 55.388 90.747 82.499 4.67 3.52 10.467 7.843 16.23 3.669z"/></svg>