<?xml version="1.0" encoding="UTF-8" standalone="no"?>
<!-- Created with Inkscape (http://www.inkscape.org/) -->

<svg width="512" height="512" viewBox="0 0 5.3333333 5.3333333" version="1.1" id="svg5" inkscape:version="1.2.2 (b0a8486541, 2022-12-01)" xml:space="preserve" sodipodi:docname="flip_v.svg" xmlns:inkscape="http://www.inkscape.org/namespaces/inkscape" xmlns:sodipodi="http://sodipodi.sourceforge.net/DTD/sodipodi-0.dtd" xmlns="http://www.w3.org/2000/svg" xmlns:svg="http://www.w3.org/2000/svg"><sodipodi:namedview id="namedview7" pagecolor="#ffffff" bordercolor="#000000" borderopacity="0.25" inkscape:showpageshadow="2" inkscape:pageopacity="0.0" inkscape:pagecheckerboard="0" inkscape:deskcolor="#d1d1d1" inkscape:document-units="mm" showgrid="false" inkscape:zoom="0.80553925" inkscape:cx="-153.93415" inkscape:cy="258.21212" inkscape:window-width="2560" inkscape:window-height="1384" inkscape:window-x="0" inkscape:window-y="32" inkscape:window-maximized="1" inkscape:current-layer="layer1" /><defs id="defs2" /><g inkscape:label="Layer 1" inkscape:groupmode="layer" id="layer1"><g aria-label="R" id="text17023" style="font-weight:bold;font-size:6.78585px;line-height:1.7em;font-family:'Blogger Sans';-inkscape-font-specification:'Blogger Sans Bold';font-variant-ligatures:no-common-ligatures;letter-spacing:0px;word-spacing:0px;text-orientation:sideways;fill:#999999;stroke-width:0.166668;stroke-linecap:round;stroke-miterlimit:2;paint-order:stroke fill markers;stop-color:#000000"><path d="m 5.1511526,1.6827184 q 0,0.5089387 -0.2510764,0.8346595 -0.2510765,0.3257208 -0.6921567,0.4682237 l 0.9296614,1.3978851 q 0.08143,0.1289311 0.067859,0.2578623 -0.00679,0.1221453 -0.08143,0.2239331 -0.067858,0.095002 -0.1764321,0.1560745 -0.1085736,0.061073 -0.223933,0.061073 -0.2646482,0 -0.4003652,-0.2103614 L 3.1832561,3.0873893 H 2.7218183 V 4.641349 q 0,0.088216 -0.040715,0.1696463 -0.040715,0.08143 -0.1085736,0.1425028 -0.061073,0.061073 -0.1492887,0.095002 -0.088216,0.040715 -0.183218,0.040715 -0.1900038,0 -0.3325066,-0.1289311 Q 1.7717993,4.824567 1.7717993,4.641349 V 0.73269937 q 0,-0.10178775 0.040715,-0.1900038 0.040715,-0.088216 0.1085736,-0.1492887 0.074644,-0.0678585 0.1696462,-0.1085736 0.095002,-0.0407151 0.1967897,-0.0407151 h 1.1807379 q 0.4750095,0 0.8007303,0.12893115 0.3257208,0.1221453 0.5157246,0.3257208 0.1967897,0.2035755 0.2782199,0.46143778 0.088216,0.2578623 0.088216,0.5225105 z m -0.950019,0 q 0,-0.1085736 -0.033929,-0.2103614 Q 4.140061,1.3705693 4.0518449,1.2891391 3.9704147,1.2077089 3.821126,1.1602079 3.6718373,1.1059211 3.4411184,1.1059211 H 2.7218183 v 1.1264511 h 0.7600152 q 0.3528642,0 0.5360822,-0.1425028 0.1832179,-0.1425029 0.1832179,-0.407151 z" id="path294" /></g><g aria-label="R" transform="scale(1,-1)" id="text17023-6" style="font-weight:bold;font-size:6.78585px;line-height:1.7em;font-family:'Blogger Sans';-inkscape-font-specification:'Blogger Sans Bold';font-variant-ligatures:no-common-ligatures;letter-spacing:0px;word-spacing:0px;text-orientation:sideways;fill:#ffffff;stroke-width:0.166668;stroke-linecap:round;stroke-miterlimit:2;paint-order:stroke fill markers;stop-color:#000000"><path d="m 3.6707539,-3.6506149 q 0,0.5089387 -0.2510764,0.8346596 -0.2510765,0.3257208 -0.6921567,0.4682236 l 0.9296614,1.39788511 q 0.08143,0.12893115 0.067859,0.25786231 -0.00679,0.1221453 -0.08143,0.22393305 -0.067858,0.0950019 -0.1764321,0.15607455 -0.1085736,0.0610726 -0.223933,0.0610726 -0.2646482,0 -0.4003652,-0.21036135 L 1.7028574,-2.2459439 H 1.2414196 v 1.55395962 q 0,0.088216 -0.040715,0.16964625 -0.040715,0.0814302 -0.1085736,0.14250285 -0.061073,0.0610726 -0.14928869,0.0950019 -0.088216,0.0407151 -0.18321796,0.0407151 -0.1900038,0 -0.33250665,-0.12893115 -0.135717,-0.135717 -0.135717,-0.31893495 V -4.6006339 q 0,-0.1017878 0.0407151,-0.1900038 0.0407151,-0.088216 0.1085736,-0.1492887 0.0746443,-0.067858 0.16964625,-0.1085736 0.0950019,-0.040715 0.19678966,-0.040715 H 1.9878631 q 0.4750095,0 0.8007303,0.1289311 0.3257208,0.1221453 0.5157246,0.3257208 0.1967897,0.2035755 0.2782199,0.4614378 0.088216,0.2578623 0.088216,0.5225105 z m -0.950019,0 q 0,-0.1085736 -0.033929,-0.2103614 -0.027143,-0.1017877 -0.1153595,-0.1832179 -0.08143,-0.08143 -0.2307189,-0.1289312 -0.1492887,-0.054287 -0.3800076,-0.054287 H 1.2414196 v 1.1264511 h 0.7600152 q 0.3528642,0 0.5360822,-0.1425028 0.1832179,-0.1425029 0.1832179,-0.407151 z" id="path291" /></g></g></svg>
