<svg xmlns="http://www.w3.org/2000/svg" xml:space="preserve" width="512" height="512" viewBox="0 0 5.333 5.333"><g stroke-linecap="round" stroke-miterlimit="2" stroke-width=".167" font-family="Blogger Sans" font-size="6.786" font-weight="700" letter-spacing="0" paint-order="stroke fill markers" word-spacing="0"><path fill="#999" d="M5.151 1.683q0 .509-.25.834-.252.326-.693.469l.93 1.397q.081.13.067.258-.006.122-.081.224-.068.095-.176.156-.109.061-.224.061-.265 0-.4-.21l-1.14-1.785h-.462v1.554q0 .089-.04.17-.042.081-.11.142-.06.062-.149.096-.088.04-.183.04-.19 0-.332-.129-.136-.135-.136-.319V.733q0-.102.04-.19.041-.089.11-.15.074-.067.169-.108.095-.04.197-.04h1.18q.475 0 .801.128.326.122.516.326.197.203.278.461.088.258.088.523zm-.95 0q0-.109-.034-.21-.027-.102-.115-.184-.082-.081-.23-.129-.15-.054-.38-.054h-.72v1.126h.76q.353 0 .536-.142.183-.143.183-.407z" aria-label="R" style="line-height:1.7em;-inkscape-font-specification:'Blogger Sans Bold';font-variant-ligatures:no-common-ligatures;text-orientation:sideways"/><path fill="#fff" d="M-.348 1.683q0 .509-.25.834-.252.326-.693.469l.93 1.397q.081.13.068.258-.007.122-.082.224-.068.095-.176.156-.109.061-.224.061-.265 0-.4-.21l-1.14-1.785h-.462v1.554q0 .089-.04.17-.041.081-.11.142-.06.062-.149.096-.088.04-.183.04-.19 0-.332-.129-.136-.135-.136-.319V.733q0-.102.04-.19.041-.089.11-.15.074-.067.169-.108.095-.04.197-.04h1.18q.475 0 .801.128.326.122.516.326.197.203.278.461.088.258.088.523zm-.95 0q0-.109-.034-.21-.027-.102-.115-.184-.081-.081-.23-.129-.15-.054-.38-.054h-.72v1.126h.76q.353 0 .536-.142.183-.143.183-.407z" aria-label="R" style="line-height:1.7em;-inkscape-font-specification:'Blogger Sans Bold';font-variant-ligatures:no-common-ligatures;text-orientation:sideways" transform="scale(-1 1)"/></g></svg>