<svg xmlns="http://www.w3.org/2000/svg" xml:space="preserve" width="512" height="512" fill="currentColor" viewBox="0 0 256 256"><path fill="#ccc" d="M40.313 24.154a22.45 22.45 0 0 0-22.5 22.5v121.254a22.45 22.45 0 0 0 22.5 22.5h62.427v-12.486H41.784c-6.094 0-11-4.906-11-11V47.64c0-6.094 4.906-11 11-11h172.432c6.094 0 11 4.906 11 11v119.28c0 6.095-4.906 11-11 11h-62.07v12.487h63.54a22.45 22.45 0 0 0 22.5-22.5V46.654a22.45 22.45 0 0 0-22.5-22.5z" paint-order="markers stroke fill"/><path fill="#ccc" d="M56.96 117.822q-1.99 0-3.462-1.471-1.384-1.471-1.384-3.461V59.588q0-1.99 1.384-3.462 1.471-1.47 3.461-1.47h28.555q1.99 0 3.461 1.47 1.471 1.471 1.471 3.462 0 1.99-1.47 3.46-1.472 1.385-3.462 1.385H64.92q-.692 0-.692.78v15.142q0 .692.692.692h19.123q1.904 0 3.288 1.384 1.385 1.298 1.385 3.289 0 1.99-1.385 3.374-1.384 1.298-3.288 1.298H64.92q-.692 0-.692.692v21.806q0 1.99-1.471 3.46-1.471 1.472-3.461 1.472zm48.629-53.129q-1.99 0-3.461-1.385-1.471-1.47-1.471-3.46v-.26q0-1.99 1.47-3.462 1.472-1.47 3.462-1.47h36.861q1.99 0 3.462 1.47 1.47 1.471 1.47 3.462v.26q0 1.99-1.47 3.46-1.471 1.385-3.462 1.385h-11.595q-.692 0-.692.779v47.418q0 1.99-1.47 3.46-1.472 1.472-3.462 1.472h-2.423q-1.99 0-3.46-1.471-1.472-1.471-1.472-3.461V65.472q0-.78-.692-.78zm65.243-.173v20.853q0 .606.692.78 3.288.432 6.403.432 7.01 0 10.644-3.029 3.72-3.115 3.72-8.826 0-11.508-14.364-11.508-3.115 0-6.403.433-.692.173-.692.865zm-7.095 53.302q-1.99 0-3.462-1.471-1.384-1.471-1.384-3.461V60.02q0-2.076 1.384-3.72 1.385-1.645 3.462-1.818 7.355-.692 14.19-.692 12.98 0 19.47 5.192 6.49 5.105 6.49 14.883 0 10.816-6.317 16.354-6.23 5.538-18.518 5.538-2.855 0-7.528-.346-.692 0-.692.692v16.787q0 1.99-1.47 3.46-1.472 1.472-3.462 1.472z" aria-label="FTP" font-family="Rounded Mplus 1c Bold" font-size="65.253" letter-spacing="0" paint-order="markers stroke fill" style="line-height:1.7em;-inkscape-font-specification:'Rounded Mplus 1c Bold, ';font-variant-ligatures:no-common-ligatures;text-orientation:sideways" word-spacing="0"/><path fill="#ccc" d="m128 129.59-44.63 39.402h25.598v66.688h38.064v-66.688h25.599z" paint-order="markers stroke fill"/></svg>