<svg xmlns="http://www.w3.org/2000/svg" xml:space="preserve" width="512" height="512" viewBox="0 0 5.333 5.333"><g paint-order="markers stroke fill"><path fill="maroon" stroke="maroon" stroke-linecap="round" stroke-miterlimit="2" stroke-width=".729" d="M1.146 1.146h3.75v3.75h-3.75z"/><path fill="gray" d="M.781.781h2.56l.237.238.181.486v1.273l-.339.539-.612.47H1.403l-.32-.21L.78 3.28Z"/><path fill="#fff" d="M2.06.064c-1.1 0-2 .9-2 2s.9 2 2 2 1.999-.9 1.999-2-.899-2-1.998-2zm0 .366a1.635 1.635 0 0 1 1.635 1.634A1.635 1.635 0 0 1 2.06 3.7 1.635 1.635 0 0 1 .425 2.064 1.635 1.635 0 0 1 2.06.43z" color="#000" style="-inkscape-stroke:none"/></g></svg>