<svg xmlns="http://www.w3.org/2000/svg" xml:space="preserve" width="512" height="512" viewBox="0 0 5.333 5.333"><g paint-order="markers stroke fill"><circle cx="2.667" cy="2.667" r="1.075" fill="none" stroke="#f2f2f2" stroke-linecap="round" stroke-miterlimit="2" stroke-width=".417"/><rect width=".425" height="1" x="2.454" y=".076" fill="#f2f2f2" rx=".212" ry=".212"/><rect width=".425" height="1" x="2.454" y="4.257" fill="#f2f2f2" rx=".212" ry=".212"/><rect width=".425" height="1" x="3.43" y="-1.615" fill="#f2f2f2" rx=".212" ry=".212" transform="rotate(30)"/><rect width=".425" height="1" x="3.43" y="2.567" fill="#f2f2f2" rx=".212" ry=".212" transform="rotate(30)"/><rect width=".425" height="1" x="3.43" y="-3.567" fill="#f2f2f2" rx=".212" ry=".212" transform="rotate(60)"/><rect width=".425" height="1" x="3.43" y=".614" fill="#f2f2f2" rx=".212" ry=".212" transform="rotate(60)"/><rect width=".425" height="1" x="2.454" y="-5.257" fill="#f2f2f2" rx=".212" ry=".212" transform="rotate(90)"/><rect width=".425" height="1" x="2.454" y="-1.076" fill="#f2f2f2" rx=".212" ry=".212" transform="rotate(90)"/><rect width=".425" height="1" x=".764" y="-6.233" fill="#f2f2f2" rx=".212" ry=".212" transform="rotate(120)"/><rect width=".425" height="1" x=".764" y="-2.052" fill="#f2f2f2" rx=".212" ry=".212" transform="rotate(120)"/><rect width=".425" height="1" x="-1.188" y="-6.233" fill="#f2f2f2" rx=".212" ry=".212" transform="rotate(150)"/><rect width=".425" height="1" x="-1.188" y="-2.052" fill="#f2f2f2" rx=".212" ry=".212" transform="rotate(150)"/></g></svg>