<svg xmlns="http://www.w3.org/2000/svg" xml:space="preserve" width="512" height="512" viewBox="0 0 5.333 5.333"><g paint-order="markers stroke fill"><circle cx="2.667" cy="2.667" r="1.075" fill="none" stroke="#f2f2f2" stroke-linecap="round" stroke-miterlimit="2" stroke-width=".417"/><rect width=".425" height="1" x="2.454" y=".076" fill="#f2f2f2" rx=".212" ry=".212"/><rect width=".425" height="1" x="2.454" y="4.257" fill="#f2f2f2" rx=".212" ry=".212"/><rect width=".425" height="1" x="3.43" y="-1.615" fill="#f2f2f2" rx=".212" ry=".212" transform="rotate(30)"/><rect width=".425" height="1" x="3.43" y="2.567" fill="#f2f2f2" rx=".212" ry=".212" transform="rotate(30)"/><rect width=".425" height="1" x="3.43" y="-3.567" fill="#f2f2f2" rx=".212" ry=".212" transform="rotate(60)"/><rect width=".425" height="1" x="3.43" y=".614" fill="#f2f2f2" rx=".212" ry=".212" transform="rotate(60)"/><rect width=".425" height="1" x="2.454" y="-5.257" fill="#f2f2f2" rx=".212" ry=".212" transform="rotate(90)"/><rect width=".425" height="1" x="2.454" y="-1.076" fill="#f2f2f2" rx=".212" ry=".212" transform="rotate(90)"/><rect width=".425" height="1" x=".764" y="-6.233" fill="#f2f2f2" rx=".212" ry=".212" transform="rotate(120)"/><rect width=".425" height="1" x=".764" y="-2.052" fill="#f2f2f2" rx=".212" ry=".212" transform="rotate(120)"/><rect width=".425" height="1" x="-1.188" y="-6.233" fill="#f2f2f2" rx=".212" ry=".212" transform="rotate(150)"/><rect width=".425" height="1" x="-1.188" y="-2.052" fill="#f2f2f2" rx=".212" ry=".212" transform="rotate(150)"/></g><path fill="#500" d="M0 2.979h5.333v2.354H0z" paint-order="stroke fill markers"/><path fill="#fff" d="M1.24 4.78q.092.003.148-.028.056-.033.089-.089.033-.058.046-.135.015-.079.023-.168-.074.043-.14.061-.064.016-.136.016-.117 0-.221-.036-.105-.036-.184-.107Q.786 4.22.738 4.11.692 4 .692 3.856q0-.125.036-.235.038-.112.114-.193.077-.085.191-.133.115-.048.268-.048.176 0 .293.066.117.066.186.183.071.115.1.276.03.16.03.351 0 .466-.158.716-.155.25-.482.25-.038 0-.114-.008-.074-.005-.15-.025-.077-.02-.136-.059-.058-.04-.066-.107-.007-.059.033-.107.044-.05.125-.05.03 0 .061.007.03.007.064.018l.069.015q.038.007.084.007zM1.553 4q0-.083-.01-.16-.01-.079-.04-.137-.029-.061-.082-.097-.051-.036-.133-.036-.069 0-.114.023-.046.023-.074.064-.028.038-.041.089-.013.051-.013.107 0 .138.066.201.067.064.184.064.074 0 .143-.023.07-.023.114-.064zm1.593.926q0 .068-.051.114t-.125.046q-.074 0-.125-.046-.05-.046-.05-.114v-.21h-.561q-.082 0-.133-.05-.048-.054-.048-.122 0-.008.005-.036.007-.028.02-.054l.49-1.128q.02-.046.063-.072.043-.028.094-.028.033 0 .064.013.03.013.056.036.025.023.04.053.016.03.016.064 0 .013-.002.025 0 .013-.008.03l-.107.246-.102.231q-.048.113-.1.23l-.106.244h.318v-.39q0-.068.051-.114t.125-.046q.071 0 .122.046.054.046.054.114v.39h.033q.074 0 .122.049.048.046.048.11 0 .066-.048.114-.048.046-.122.046h-.033zm.907-1.391q-.128 0-.181.079-.054.076-.054.198v.719q0 .11.059.178.061.066.176.066.114 0 .173-.066.061-.069.061-.178v-.719q0-.122-.053-.198-.054-.08-.181-.08zm0-.311q.153 0 .265.048.112.046.183.13.071.082.105.194.035.11.035.234v.7q0 .118-.038.22-.038.102-.115.178-.074.074-.183.117-.11.044-.252.044-.143 0-.253-.044-.11-.043-.186-.117-.073-.076-.112-.178-.038-.102-.038-.22v-.7q0-.125.033-.234.036-.112.107-.194.072-.084.184-.13.112-.048.265-.048z" aria-label="940" font-family="Blogger Sans" font-size="2.548" font-weight="700" letter-spacing="0" paint-order="stroke fill markers" style="line-height:1.7em;-inkscape-font-specification:'Blogger Sans Bold';font-variant-ligatures:no-common-ligatures;text-orientation:sideways" word-spacing="0"/></svg>