<?xml version="1.0" encoding="UTF-8" standalone="no"?>
<!-- Created with Inkscape (http://www.inkscape.org/) -->

<svg width="512" height="512" viewBox="0 0 5.3333333 5.3333333" version="1.1" id="svg5" inkscape:version="1.2.2 (b0a8486541, 2022-12-01)" xml:space="preserve" sodipodi:docname="light_940nm.svg" xmlns:inkscape="http://www.inkscape.org/namespaces/inkscape" xmlns:sodipodi="http://sodipodi.sourceforge.net/DTD/sodipodi-0.dtd" xmlns="http://www.w3.org/2000/svg" xmlns:svg="http://www.w3.org/2000/svg"><sodipodi:namedview id="namedview7" pagecolor="#ffffff" bordercolor="#000000" borderopacity="0.25" inkscape:showpageshadow="2" inkscape:pageopacity="0.0" inkscape:pagecheckerboard="0" inkscape:deskcolor="#d1d1d1" inkscape:document-units="mm" showgrid="false" inkscape:zoom="1.1392045" inkscape:cx="114.55362" inkscape:cy="334.8828" inkscape:window-width="2560" inkscape:window-height="1379" inkscape:window-x="0" inkscape:window-y="32" inkscape:window-maximized="1" inkscape:current-layer="layer1" /><defs id="defs2" /><g inkscape:label="Layer 1" inkscape:groupmode="layer" id="layer1"><g id="g4516"><circle style="fill:none;stroke:#f2f2f2;stroke-width:0.416667;stroke-linecap:round;stroke-miterlimit:2;stroke-dasharray:none;paint-order:markers stroke fill;stop-color:#000000" id="path338" cx="2.6666667" cy="2.6666667" r="1.0754927" /><rect style="fill:#f2f2f2;stroke:none;stroke-width:0.558019;stroke-linecap:round;stroke-miterlimit:2;paint-order:markers stroke fill;stop-color:#000000" id="rect602" width="0.42485255" height="1.0001959" x="2.4542403" y="0.076014429" rx="0.21242628" ry="0.21242628" /><rect style="fill:#f2f2f2;stroke:none;stroke-width:0.558019;stroke-linecap:round;stroke-miterlimit:2;paint-order:markers stroke fill;stop-color:#000000" id="rect602-3" width="0.42485255" height="1.0001959" x="2.4542403" y="4.257123" rx="0.21242628" ry="0.21242628" /><rect style="fill:#f2f2f2;stroke:none;stroke-width:0.558019;stroke-linecap:round;stroke-miterlimit:2;paint-order:markers stroke fill;stop-color:#000000" id="rect602-7" width="0.42485255" height="1.0001959" x="3.4303081" y="-1.6145844" rx="0.21242628" ry="0.21242628" transform="rotate(30)" /><rect style="fill:#f2f2f2;stroke:none;stroke-width:0.558019;stroke-linecap:round;stroke-miterlimit:2;paint-order:markers stroke fill;stop-color:#000000" id="rect602-3-5" width="0.42485255" height="1.0001959" x="3.4303081" y="2.566524" rx="0.21242628" ry="0.21242628" transform="rotate(30)" /><rect style="fill:#f2f2f2;stroke:none;stroke-width:0.558019;stroke-linecap:round;stroke-miterlimit:2;paint-order:markers stroke fill;stop-color:#000000" id="rect602-5" width="0.42485255" height="1.0001959" x="3.4303081" y="-3.56672" rx="0.21242628" ry="0.21242628" transform="rotate(60)" /><rect style="fill:#f2f2f2;stroke:none;stroke-width:0.558019;stroke-linecap:round;stroke-miterlimit:2;paint-order:markers stroke fill;stop-color:#000000" id="rect602-3-6" width="0.42485255" height="1.0001959" x="3.4303081" y="0.61438864" rx="0.21242628" ry="0.21242628" transform="rotate(60)" /><rect style="fill:#f2f2f2;stroke:none;stroke-width:0.558019;stroke-linecap:round;stroke-miterlimit:2;paint-order:markers stroke fill;stop-color:#000000" id="rect602-9" width="0.42485255" height="1.0001959" x="2.4542403" y="-5.257319" rx="0.21242628" ry="0.21242628" transform="rotate(90)" /><rect style="fill:#f2f2f2;stroke:none;stroke-width:0.558019;stroke-linecap:round;stroke-miterlimit:2;paint-order:markers stroke fill;stop-color:#000000" id="rect602-3-1" width="0.42485255" height="1.0001959" x="2.4542403" y="-1.0762103" rx="0.21242628" ry="0.21242628" transform="rotate(90)" /><rect style="fill:#f2f2f2;stroke:none;stroke-width:0.558019;stroke-linecap:round;stroke-miterlimit:2;paint-order:markers stroke fill;stop-color:#000000" id="rect602-0" width="0.42485255" height="1.0001959" x="0.76364142" y="-6.2333865" rx="0.21242628" ry="0.21242628" transform="rotate(120)" /><rect style="fill:#f2f2f2;stroke:none;stroke-width:0.558019;stroke-linecap:round;stroke-miterlimit:2;paint-order:markers stroke fill;stop-color:#000000" id="rect602-3-9" width="0.42485255" height="1.0001959" x="0.76364142" y="-2.052278" rx="0.21242628" ry="0.21242628" transform="rotate(120)" /><rect style="fill:#f2f2f2;stroke:none;stroke-width:0.558019;stroke-linecap:round;stroke-miterlimit:2;paint-order:markers stroke fill;stop-color:#000000" id="rect602-06" width="0.42485255" height="1.0001959" x="-1.1884941" y="-6.2333865" rx="0.21242628" ry="0.21242628" transform="rotate(150)" /><rect style="fill:#f2f2f2;stroke:none;stroke-width:0.558019;stroke-linecap:round;stroke-miterlimit:2;paint-order:markers stroke fill;stop-color:#000000" id="rect602-3-2" width="0.42485255" height="1.0001959" x="-1.1884941" y="-2.052278" rx="0.21242628" ry="0.21242628" transform="rotate(150)" /></g><rect style="fill:#550000;fill-opacity:1;stroke:none;stroke-width:0.156597;stroke-linecap:round;stroke-miterlimit:2;stroke-dasharray:none;paint-order:stroke fill markers;stop-color:#000000" id="rect17143" width="5.3333335" height="2.3541667" x="-9.6139523e-08" y="2.9791658" /><g aria-label="940" id="text17023" style="font-weight:bold;font-size:2.54785px;line-height:1.7em;font-family:'Blogger Sans';-inkscape-font-specification:'Blogger Sans Bold';font-variant-ligatures:no-common-ligatures;letter-spacing:0px;word-spacing:0px;text-orientation:sideways;fill:#ffffff;stroke-width:0.166668;stroke-linecap:round;stroke-miterlimit:2;paint-order:stroke fill markers;stop-color:#000000"><path d="m 1.2398684,4.7804725 q 0.091723,0.00255 0.1477753,-0.028026 0.056053,-0.033122 0.089175,-0.089175 0.033122,-0.058601 0.045861,-0.1350361 0.015287,-0.078983 0.022931,-0.1681581 -0.073888,0.043314 -0.1401318,0.061148 -0.063696,0.015287 -0.135036,0.015287 -0.1172011,0 -0.221663,-0.03567 Q 0.9443178,4.3651729 0.86533445,4.2938331 0.7863511,4.2199455 0.73794195,4.110388 0.69208066,4.0008304 0.69208066,3.855603 q 0,-0.1248447 0.0356699,-0.2344022 Q 0.7659683,3.5090954 0.8424038,3.4275642 0.9188393,3.3434851 1.0334925,3.295076 q 0.1146533,-0.048409 0.2675243,-0.048409 0.1758016,0 0.2930027,0.066244 0.1172011,0.066244 0.1859931,0.1834452 0.07134,0.1146533 0.099366,0.2751678 0.030574,0.1605146 0.030574,0.3516033 0,0.4662565 -0.1579667,0.7159458 -0.1554188,0.2496893 -0.4815436,0.2496893 -0.038218,0 -0.1146533,-0.00764 -0.073888,-0.0051 -0.1503231,-0.025478 Q 0.9290307,5.0352575 0.87043015,4.9970397 0.8118296,4.9562741 0.80418605,4.89003 0.7965425,4.8314295 0.8373081,4.7830203 q 0.0433134,-0.050957 0.12484465,-0.050957 0.0305742,0 0.0611484,0.00764 0.030574,0.00764 0.063696,0.017835 0.033122,0.00764 0.068792,0.015287 0.038218,0.00764 0.084079,0.00764 z M 1.5532539,4.0008304 q 0,-0.084079 -0.010191,-0.1605145 -0.010191,-0.078983 -0.040766,-0.1375839 -0.028026,-0.061148 -0.081531,-0.096818 -0.050957,-0.03567 -0.1324882,-0.03567 -0.068792,0 -0.1146532,0.022931 -0.045861,0.022931 -0.073888,0.063696 -0.028026,0.038218 -0.040766,0.089175 -0.012739,0.050957 -0.012739,0.1070097 0,0.1375839 0.066244,0.2012802 0.066244,0.063696 0.1834452,0.063696 0.073888,0 0.1426796,-0.022931 0.07134,-0.022931 0.1146532,-0.063696 z" id="path291" /><path d="m 3.1456624,4.9256999 q 0,0.068792 -0.050957,0.1146533 -0.050957,0.045861 -0.1248446,0.045861 -0.073888,0 -0.1248447,-0.045861 -0.050957,-0.045861 -0.050957,-0.1146533 V 4.7167762 H 2.2335322 q -0.081531,0 -0.1324882,-0.050957 -0.048409,-0.053505 -0.048409,-0.1222968 0,-0.00764 0.0051,-0.03567 0.00764,-0.028026 0.020383,-0.053505 L 2.5673005,3.3256502 q 0.020383,-0.045861 0.063696,-0.07134 0.043314,-0.028026 0.09427,-0.028026 0.033122,0 0.063696,0.012739 0.030574,0.012739 0.056053,0.03567 0.025478,0.022931 0.040766,0.053505 0.015287,0.030574 0.015287,0.063696 0,0.012739 -0.00255,0.025478 0,0.012739 -0.00764,0.030574 Q 2.8348247,3.5753395 2.7838677,3.6925406 2.7329107,3.8097417 2.6819537,3.9243949 2.6335446,4.0365003 2.5825876,4.1537014 2.5316306,4.2709025 2.4755779,4.398295 H 2.7940591 V 4.008474 q 0,-0.068792 0.050957,-0.1146533 0.050957,-0.045861 0.1248447,-0.045861 0.07134,0 0.1222968,0.045861 0.053505,0.045861 0.053505,0.1146533 v 0.389821 h 0.033122 q 0.073888,0 0.1222968,0.048409 0.048409,0.045861 0.048409,0.1095576 0,0.066244 -0.048409,0.1146532 -0.048409,0.045861 -0.1222968,0.045861 h -0.033122 z" id="path293" /><path d="m 4.0526993,3.5345739 q -0.1273925,0 -0.1808973,0.078983 -0.053505,0.076436 -0.053505,0.1987323 v 0.7184937 q 0,0.1095575 0.058601,0.1783495 0.061148,0.066244 0.1758016,0.066244 0.1146532,0 0.1732538,-0.066244 0.061148,-0.068792 0.061148,-0.1783495 V 3.8122895 q 0,-0.1222968 -0.053505,-0.1987323 -0.053505,-0.078983 -0.1808973,-0.078983 z m 0,-0.3108377 q 0.152871,0 0.2649764,0.048409 0.1121054,0.045861 0.1834452,0.1299404 0.07134,0.081531 0.1044618,0.1936366 0.03567,0.1095575 0.03567,0.2344022 v 0.7006587 q 0,0.1172011 -0.038218,0.2191151 -0.038218,0.101914 -0.1146533,0.1783495 -0.073888,0.073888 -0.1834452,0.1172011 -0.1095575,0.043313 -0.2522371,0.043313 -0.1426796,0 -0.2522371,-0.043313 Q 3.6909046,5.0021354 3.6144691,4.9282478 3.5405815,4.8518123 3.5023637,4.7498983 3.464146,4.6479843 3.464146,4.5307832 V 3.8301245 q 0,-0.1248447 0.033122,-0.2344022 0.03567,-0.1121054 0.1070097,-0.1936366 0.07134,-0.084079 0.1834452,-0.1299404 0.1121054,-0.048409 0.2649764,-0.048409 z" id="path295" /></g></g></svg>
