<?xml version="1.0" encoding="UTF-8" standalone="no"?>
<!-- Created with Inkscape (http://www.inkscape.org/) -->

<svg width="512" height="512" viewBox="0 0 5.3333333 5.3333333" version="1.1" id="svg5" inkscape:version="1.2.2 (b0a8486541, 2022-12-01)" xml:space="preserve" sodipodi:docname="light_850nm.svg" xmlns:inkscape="http://www.inkscape.org/namespaces/inkscape" xmlns:sodipodi="http://sodipodi.sourceforge.net/DTD/sodipodi-0.dtd" xmlns="http://www.w3.org/2000/svg" xmlns:svg="http://www.w3.org/2000/svg"><sodipodi:namedview id="namedview7" pagecolor="#ffffff" bordercolor="#000000" borderopacity="0.25" inkscape:showpageshadow="2" inkscape:pageopacity="0.0" inkscape:pagecheckerboard="0" inkscape:deskcolor="#d1d1d1" inkscape:document-units="mm" showgrid="false" inkscape:zoom="1.6110785" inkscape:cx="74.794617" inkscape:cy="303.83374" inkscape:window-width="2560" inkscape:window-height="1379" inkscape:window-x="0" inkscape:window-y="32" inkscape:window-maximized="1" inkscape:current-layer="layer1" /><defs id="defs2" /><g inkscape:label="Layer 1" inkscape:groupmode="layer" id="layer1"><g id="g4516"><circle style="fill:none;stroke:#f2f2f2;stroke-width:0.416667;stroke-linecap:round;stroke-miterlimit:2;stroke-dasharray:none;paint-order:markers stroke fill;stop-color:#000000" id="path338" cx="2.6666667" cy="2.6666667" r="1.0754927" /><rect style="fill:#f2f2f2;stroke:none;stroke-width:0.558019;stroke-linecap:round;stroke-miterlimit:2;paint-order:markers stroke fill;stop-color:#000000" id="rect602" width="0.42485255" height="1.0001959" x="2.4542403" y="0.076014429" rx="0.21242628" ry="0.21242628" /><rect style="fill:#f2f2f2;stroke:none;stroke-width:0.558019;stroke-linecap:round;stroke-miterlimit:2;paint-order:markers stroke fill;stop-color:#000000" id="rect602-3" width="0.42485255" height="1.0001959" x="2.4542403" y="4.257123" rx="0.21242628" ry="0.21242628" /><rect style="fill:#f2f2f2;stroke:none;stroke-width:0.558019;stroke-linecap:round;stroke-miterlimit:2;paint-order:markers stroke fill;stop-color:#000000" id="rect602-7" width="0.42485255" height="1.0001959" x="3.4303081" y="-1.6145844" rx="0.21242628" ry="0.21242628" transform="rotate(30)" /><rect style="fill:#f2f2f2;stroke:none;stroke-width:0.558019;stroke-linecap:round;stroke-miterlimit:2;paint-order:markers stroke fill;stop-color:#000000" id="rect602-3-5" width="0.42485255" height="1.0001959" x="3.4303081" y="2.566524" rx="0.21242628" ry="0.21242628" transform="rotate(30)" /><rect style="fill:#f2f2f2;stroke:none;stroke-width:0.558019;stroke-linecap:round;stroke-miterlimit:2;paint-order:markers stroke fill;stop-color:#000000" id="rect602-5" width="0.42485255" height="1.0001959" x="3.4303081" y="-3.56672" rx="0.21242628" ry="0.21242628" transform="rotate(60)" /><rect style="fill:#f2f2f2;stroke:none;stroke-width:0.558019;stroke-linecap:round;stroke-miterlimit:2;paint-order:markers stroke fill;stop-color:#000000" id="rect602-3-6" width="0.42485255" height="1.0001959" x="3.4303081" y="0.61438864" rx="0.21242628" ry="0.21242628" transform="rotate(60)" /><rect style="fill:#f2f2f2;stroke:none;stroke-width:0.558019;stroke-linecap:round;stroke-miterlimit:2;paint-order:markers stroke fill;stop-color:#000000" id="rect602-9" width="0.42485255" height="1.0001959" x="2.4542403" y="-5.257319" rx="0.21242628" ry="0.21242628" transform="rotate(90)" /><rect style="fill:#f2f2f2;stroke:none;stroke-width:0.558019;stroke-linecap:round;stroke-miterlimit:2;paint-order:markers stroke fill;stop-color:#000000" id="rect602-3-1" width="0.42485255" height="1.0001959" x="2.4542403" y="-1.0762103" rx="0.21242628" ry="0.21242628" transform="rotate(90)" /><rect style="fill:#f2f2f2;stroke:none;stroke-width:0.558019;stroke-linecap:round;stroke-miterlimit:2;paint-order:markers stroke fill;stop-color:#000000" id="rect602-0" width="0.42485255" height="1.0001959" x="0.76364142" y="-6.2333865" rx="0.21242628" ry="0.21242628" transform="rotate(120)" /><rect style="fill:#f2f2f2;stroke:none;stroke-width:0.558019;stroke-linecap:round;stroke-miterlimit:2;paint-order:markers stroke fill;stop-color:#000000" id="rect602-3-9" width="0.42485255" height="1.0001959" x="0.76364142" y="-2.052278" rx="0.21242628" ry="0.21242628" transform="rotate(120)" /><rect style="fill:#f2f2f2;stroke:none;stroke-width:0.558019;stroke-linecap:round;stroke-miterlimit:2;paint-order:markers stroke fill;stop-color:#000000" id="rect602-06" width="0.42485255" height="1.0001959" x="-1.1884941" y="-6.2333865" rx="0.21242628" ry="0.21242628" transform="rotate(150)" /><rect style="fill:#f2f2f2;stroke:none;stroke-width:0.558019;stroke-linecap:round;stroke-miterlimit:2;paint-order:markers stroke fill;stop-color:#000000" id="rect602-3-2" width="0.42485255" height="1.0001959" x="-1.1884941" y="-2.052278" rx="0.21242628" ry="0.21242628" transform="rotate(150)" /></g><rect style="fill:#800000;fill-opacity:1;stroke:none;stroke-width:0.166824;stroke-linecap:round;stroke-miterlimit:2;stroke-dasharray:none;paint-order:stroke fill markers;stop-color:#000000" id="rect17143" width="5.3333335" height="2.3541667" x="-9.6139523e-08" y="2.9791667" /><g aria-label="850" id="text17023" style="font-weight:bold;font-size:2.54785px;line-height:1.7em;font-family:'Blogger Sans';-inkscape-font-specification:'Blogger Sans Bold';font-variant-ligatures:no-common-ligatures;letter-spacing:0px;word-spacing:0px;text-orientation:sideways;fill:#ffffff;stroke-width:0.166668;stroke-linecap:round;stroke-miterlimit:2;paint-order:stroke fill markers;stop-color:#000000" transform="translate(-9.4999997e-8,0.15624972)"><path d="m 1.9570881,4.3821777 q 0,0.1197489 -0.048409,0.2216629 -0.045861,0.099366 -0.1299404,0.1732538 -0.084079,0.07134 -0.2038279,0.1146533 -0.1172011,0.040766 -0.2573329,0.040766 -0.1375839,0 -0.2573328,-0.040766 -0.11720112,-0.040766 -0.20382802,-0.1121054 -0.084079,-0.07134 -0.13248819,-0.170706 -0.0484092,-0.099366 -0.0484092,-0.2165672 0,-0.1477753 0.0713398,-0.2522372 0.0713398,-0.1070096 0.18089734,-0.1783494 -0.0891747,-0.066244 -0.14013175,-0.1579667 -0.0484091,-0.091723 -0.0484091,-0.2140194 0,-0.1172011 0.0458613,-0.2089237 0.0458613,-0.091723 0.12484465,-0.1554189 0.0789834,-0.063696 0.18344517,-0.096818 0.1044619,-0.03567 0.221663,-0.03567 0.1222968,0 0.2267586,0.03567 0.1044618,0.03567 0.1808973,0.099366 0.078983,0.063696 0.1222968,0.1554188 0.045861,0.089175 0.045861,0.1961845 0,0.2191151 -0.1885409,0.3643425 0.1121054,0.073888 0.1834452,0.1808973 0.07134,0.1044619 0.07134,0.2573328 z M 1.5417886,3.5872485 q 0,-0.081531 -0.066244,-0.135036 -0.063696,-0.053505 -0.1579667,-0.053505 -0.096818,0 -0.1630624,0.053505 -0.063696,0.053505 -0.063696,0.135036 0,0.089175 0.068792,0.1452275 0.068792,0.053505 0.1630624,0.073888 0.09427,-0.020383 0.1554189,-0.078983 0.063696,-0.058601 0.063696,-0.1401325 z m 0.061148,0.7949292 q 0,-0.053505 -0.025478,-0.096818 -0.022931,-0.043314 -0.063696,-0.076435 -0.038218,-0.033122 -0.091723,-0.056053 -0.053505,-0.022931 -0.1121054,-0.03567 -0.119749,0.025479 -0.2012802,0.09427 -0.078983,0.066244 -0.078983,0.170706 0,0.050957 0.020383,0.096818 0.022931,0.043313 0.061148,0.076435 0.040766,0.030574 0.091723,0.048409 0.053505,0.017835 0.1146532,0.017835 0.1248447,0 0.203828,-0.068792 0.081531,-0.07134 0.081531,-0.1707059 z" id="path291" /><path d="m 3.2743288,4.3108379 q 0,0.1121054 -0.033122,0.2216629 -0.033122,0.1095576 -0.1070097,0.1987323 -0.07134,0.089175 -0.1834452,0.1452275 -0.1121054,0.053505 -0.2675242,0.053505 -0.045861,0 -0.1401318,-0.010191 -0.09427,-0.00764 -0.1910887,-0.033122 -0.09427,-0.025479 -0.1681581,-0.073888 -0.07134,-0.048409 -0.07134,-0.1273925 0,-0.063696 0.048409,-0.1095575 0.048409,-0.048409 0.1222968,-0.048409 0.038218,0 0.07134,0.015287 0.033122,0.015287 0.07134,0.033122 0.040766,0.015287 0.086627,0.030574 0.048409,0.015287 0.1121054,0.015287 0.084079,0 0.1401318,-0.025478 0.058601,-0.025479 0.091723,-0.066244 0.03567,-0.043314 0.048409,-0.096818 0.015287,-0.056053 0.015287,-0.1121054 0,-0.1426796 -0.07134,-0.2089237 -0.068792,-0.066244 -0.1732538,-0.066244 -0.043313,0 -0.076436,0.00764 -0.030574,0.00764 -0.063696,0.025478 -0.030574,0.022931 -0.061148,0.040766 -0.028026,0.015287 -0.061148,0.028026 -0.030574,0.010191 -0.061148,0.010191 -0.076436,0 -0.1299404,-0.048409 -0.050957,-0.048409 -0.048409,-0.1248446 l 0.025478,-0.7032066 q 0.00255,-0.081531 0.061148,-0.1248446 0.061148,-0.045861 0.1324882,-0.045861 h 0.6140318 q 0.033122,0 0.068792,0.010191 0.03567,0.00764 0.061148,0.028026 0.028026,0.017835 0.045861,0.048409 0.017835,0.030574 0.017835,0.073888 0,0.043314 -0.017835,0.073888 -0.017835,0.028026 -0.045861,0.048409 -0.025478,0.017835 -0.061148,0.025479 -0.03567,0.00764 -0.068792,0.00764 H 2.5303567 l -0.015287,0.3312205 q 0.038218,-0.012739 0.078983,-0.015287 0.043314,-0.0051 0.086627,-0.0051 0.1299404,0 0.2394979,0.040766 0.1095576,0.038218 0.1885409,0.1121054 0.078983,0.073888 0.1222968,0.1808973 0.043313,0.1044618 0.043313,0.2394979 z" id="path293" /><path d="m 4.0692603,3.3783248 q -0.1273925,0 -0.1808973,0.078983 -0.053505,0.076436 -0.053505,0.1987323 v 0.7184936 q 0,0.1095576 0.058601,0.1783495 0.061148,0.066244 0.1758016,0.066244 0.1146533,0 0.1732538,-0.066244 0.061148,-0.068792 0.061148,-0.1783495 V 3.6560405 q 0,-0.1222968 -0.053505,-0.1987323 -0.053505,-0.078983 -0.1808971,-0.078983 z m 0,-0.3108377 q 0.152871,0 0.2649764,0.048409 0.1121054,0.045861 0.1834452,0.1299403 0.07134,0.081531 0.1044619,0.1936366 0.03567,0.1095576 0.03567,0.2344022 v 0.7006587 q 0,0.1172011 -0.038218,0.2191151 -0.038218,0.101914 -0.1146532,0.1783495 -0.073888,0.073888 -0.1834452,0.1172011 -0.1095576,0.043314 -0.2522372,0.043314 -0.1426796,0 -0.2522371,-0.043314 Q 3.7074656,4.8458864 3.6310302,4.7719987 3.5571425,4.6955632 3.5189248,4.5936492 3.480707,4.4917352 3.480707,4.3745341 V 3.6738754 q 0,-0.1248446 0.033122,-0.2344022 0.03567,-0.1121054 0.1070097,-0.1936366 0.07134,-0.084079 0.1834451,-0.1299403 0.1121054,-0.048409 0.2649765,-0.048409 z" id="path295" /></g></g></svg>
