<svg xmlns="http://www.w3.org/2000/svg" xml:space="preserve" width="512" height="512" viewBox="0 0 5.333 5.333"><path fill="#0f0" d="M0 0v.895h.083V.083h.812V0H0zm4.438 0v.083h.812v.812h.083v3.543H5.25v.812h-.812v.083H.895V5.25H.083v-.812H0v.896h5.334V0h-.896z" color="#000" paint-order="stroke fill markers" style="-inkscape-stroke:none"/><path fill="#ccc" d="M3.172 5.179a.33.33 0 0 1-.241-.22c-.005-.02-.026-.264-.046-.544s-.039-.53-.042-.555c-.008-.057-.007-.056-.395-.391a8.78 8.78 0 0 1-.336-.3.52.52 0 0 1-.126-.326 8.7 8.7 0 0 1 .056-.437l.056-.398c0-.012-.1.054-.122.08a5.36 5.36 0 0 0-.139.39c-.131.4-.146.43-.234.476-.177.091-.388-.03-.388-.222 0-.023.019-.106.042-.184l.112-.387a3.32 3.32 0 0 1 .1-.303.551.551 0 0 1 .1-.13c.068-.067.087-.079.34-.204.146-.073.32-.162.387-.198.149-.082.232-.103.34-.086A.416.416 0 0 1 3 1.616c.004.057-.016.22-.085.712-.083.583-.09.64-.076.668a2.1 2.1 0 0 0 .23.209c.225.186.275.235.324.321.066.116.07.137.114.748.023.312.04.595.038.629a.297.297 0 0 1-.286.277.44.44 0 0 1-.087-.001zm-1.597-.065a.357.357 0 0 1-.199-.16.208.208 0 0 1-.021-.108c0-.063.016-.106.286-.786.157-.395.29-.734.296-.752.006-.018.014-.033.017-.033.004 0 .119.093.256.206.192.16.249.212.245.226-.003.01-.115.3-.25.643-.242.616-.246.625-.296.677a.307.307 0 0 1-.24.096.487.487 0 0 1-.094-.009ZM3.65 2.766a2.545 2.545 0 0 1-.314-.211l-.275-.204a5.47 5.47 0 0 1 .089-.607c.005 0 .152.11.328.244l.372.283c.078.06.108.09.13.134a.255.255 0 0 1-.115.341.306.306 0 0 1-.215.02zM2.234.612c.007-.205.193-.413.38-.46a.683.683 0 0 1 .25.003c.18.048.326.203.364.385a.507.507 0 0 1-.615.592c-.256-.098-.389-.3-.379-.52Z"/></svg>