<svg xmlns="http://www.w3.org/2000/svg" xml:space="preserve" width="512" height="512" fill="currentColor" viewBox="0 0 256 256"><path fill="#ccc" d="M135.394 245.522c-2.924-.485-3.887-1.184-8.226-5.971a762.925 762.925 0 0 0-4.932-5.407l-.887-.942-2.66.434c-3.512.573-10.538.346-14.042-.455-7.895-1.803-14.467-5.85-18.99-11.696-3.528-4.56-5.973-10.474-6.755-16.337-.426-3.202-.2-9.79.437-12.713 2.565-11.776 10.35-20.514 21.644-24.298 6.852-2.296 16.458-2.418 23.326-.296 10.319 3.187 18.137 10.827 21.404 20.917 1.335 4.12 1.65 6.302 1.65 11.43 0 5.127-.315 7.308-1.65 11.43-1.885 5.82-5.078 10.58-9.835 14.662l-1.434 1.23 7.938 8.658c4.365 4.761 8.12 8.89 8.342 9.174.385.49.03.516-6.65.483-3.882-.019-7.788-.156-8.68-.303zm-17.03-24.782c6.42-1.642 10.76-6.16 12.64-13.162.873-3.25.951-10.689.15-14.19-1.665-7.261-6.21-12.158-12.942-13.942-2.528-.67-7.732-.671-10.314-.002-8.626 2.232-13.581 9.7-13.594 20.484-.016 13.512 6.793 21.319 18.646 21.38 2.196.013 3.813-.158 5.414-.567zM0 200.193v-33.262h7.02c6.093.001 7.158.07 8.056.518.929.464 1.452 1.334 5.107 8.498 7.607 14.907 16.103 31.922 16.496 33.035.443 1.256.845 1.421 1.076.443.341-1.44 20.283-40.614 21.106-41.46l.863-.886 7.385-.088 7.385-.089v66.542h-13.32l.083-22.009c.045-12.104-.004-21.915-.11-21.801-.106.114-3.48 6.592-7.498 14.396-10.199 19.812-10.136 19.696-11.17 20.775-1.246 1.299-2.519 1.625-5.866 1.5-4.379-.162-4.06.206-10.224-11.78a6873.176 6873.176 0 0 0-10.85-21.017l-2.089-4.019v43.807l-6.725.08-6.725.079zm163.769 6.054v-27.196h-18.045l.08-5.986.08-5.986 25.497-.076 25.497-.075v12.114l-8.943.079-8.942.078-.075 27.122-.076 27.123H163.77zm58.236.004v-27.2h-17.737v-12.12H256v12.12h-18.62l-.076 27.122-.075 27.122-7.612.08-7.612.078zM65.59 145.412c-1.15-.601-1.823-1.218-2.472-2.267l-.892-1.442-.08-26.111-.08-26.111h2.361c5.057 0 12.883 1.573 18.412 3.702 10.867 4.184 19.801 11.1 26.722 20.686 6.279 8.697 9.732 18.671 10.567 30.522l.13 1.847H67.171Zm74.234-1.319c0-2.771-.702-8.729-1.472-12.488-5.512-26.906-25.16-49.125-51.53-58.271-6.876-2.385-17.034-4.25-23.149-4.25H62.08V47.706l4.508.186c20.828.86 40.614 8.203 57.566 21.363 4.248 3.298 12.684 11.644 16.11 15.938 13.103 16.424 20.79 36.609 21.645 56.832l.178 4.212h-22.262Zm41.973.001c-.011-5.167-1.022-13.938-2.384-20.689-7.563-37.487-33.684-69.856-69.002-85.507-10.562-4.68-21.315-7.724-32.813-9.288-4.04-.55-11.968-1.208-14.537-1.208h-1.04l.11-4.065c.096-3.516.2-4.235.776-5.325.842-1.594 2.621-2.893 4.522-3.3.971-.209 8.517-.317 22.005-.317h20.528l3.033 1.158c6.886 2.631 12.796 5.418 19.127 9.02 26.744 15.216 47.729 38.354 60.014 66.173l1.8 4.075-.081 23.417c-.077 22.124-.111 23.473-.627 24.419-.721 1.323-1.847 2.355-3.297 3.023-.933.43-1.917.546-4.656.551l-3.474.006-.004-2.143zm8.134-95.928c-9.576-12.22-17.873-20.372-29.74-29.222a974.72 974.72 0 0 1-5.173-3.875l-.856-.655 17.293.064c16.155.06 17.376.1 18.556.617 1.748.764 3.217 2.566 3.618 4.437.22 1.025.296 6.69.235 17.526l-.09 16.012z"/></svg>