<svg xmlns="http://www.w3.org/2000/svg" xml:space="preserve" width="512" height="512"><g fill="#f2f2f2"><path d="M452.798 73.94c-17.018 9.826-31.308 17.727-31.72 17.617-.414-.11-6.04-4.717-12.685-10.481-42.37-36.804-94.15-56.655-150.402-57.342-66.773-1.071-131.612 27.81-176.592 78.391-19.98 22.533-37.078 52.477-46.063 81.054l-4.05 12.636 20.236 5.423 20.65 5.533 2.102-7.847c4.15-15.487 14.89-37.397 26.2-53.178 39.147-55.242 105.048-85.61 172.724-79.65 20.764 1.802 49.094 10.057 68.994 20.037 13.68 6.764 39.107 24.2 40.04 27.328.247.73-11.384 7.794-25.578 16.163l-25.92 14.965 60.708 16.267 60.503 16.212 16.211-60.503c8.908-33.245 16.157-60.295 15.95-60.35-.206-.056-14.29 7.9-31.308 17.726zM438.15 312.802c-2.712 10.118-9.188 25.203-15.233 36.198-38.71 69.302-116.407 107.354-195.133 95.555-20.639-3.096-45.595-11.553-63.677-21.71-14.023-7.963-34.826-22.832-34.273-24.897.11-.413 11.948-7.422 25.88-15.64l25.92-14.965-60.708-16.267-60.503-16.212-16.211 60.503-16.322 60.915 31.68-18.29 31.419-18.14 12.422 10.632c6.85 5.82 15.187 12.7 18.366 14.88 57.498 40.637 130.66 53.38 197.567 34.126 49.866-14.303 93.886-44.78 123.817-85.45 15.393-21.105 29.556-49.18 35.31-70.656l1.992-7.433-20.03-5.367-20.03-5.367-2.047 7.64z"/></g><rect width="279.724" height="157.345" x="116.138" y="177.328" fill="maroon" paint-order="markers stroke fill" rx="16.376" ry="18.424"/></svg>