<svg width="800" height="800" viewBox="0 0 400 400" xmlns="http://www.w3.org/2000/svg">
<path fill="#ccc" d="m 300.7042,336.17614 c -3.56425,-0.76828 -9.70662,-3.22007 -13.7981,-5.50816 -7.02796,-3.93163 -98.83738,-65.11815 -102.13738,-68.07138 -4.89327,-4.37894 -6.46592,-7.38374 -6.46592,-12.35951 0,-5.11112 1.48886,-8.1894 7.7408,-16.00497 9.86776,-12.3363 19.88504,-22.1873 44.85671,-44.10905 31.74697,-27.87077 43.65659,-40.74203 43.65659,-47.18347 0,-5.87811 -5.08147,-7.42756 -11.25993,-3.43276 -1.86656,1.20785 -24.98585,17.19606 -51.37678,35.53165 -60.29578,41.88929 -60.40535,41.96534 -65.10268,44.91858 -15.51255,9.75818 -28.27295,12.74236 -43.55218,10.18744 -10.224822,-1.71058 -51.514701,-13.9979 -57.984493,-17.25536 -9.046623,-4.55553 -12.916381,-13.60216 -8.368578,-19.56406 2.168199,-2.84109 4.601944,-4.32093 14.744268,-8.95768 C 58.76956,181.11512 184.5122,127.17698 290.9357,81.727303 c 10.7456,-4.589053 22.69132,-9.734981 26.54561,-11.435251 11.53451,-5.08792 24.78218,-7.806547 31.81787,-6.531667 7.18006,1.301951 11.889,5.029912 14.45423,11.441696 1.11503,2.788237 1.27617,4.219094 1.24265,10.964744 -0.0387,7.15815 -1.29164,15.953405 -16.22797,113.785325 -8.90225,58.31707 -16.60567,108.3558 -17.11614,111.20076 -2.40281,13.36755 -7.13366,20.65718 -15.61825,24.05901 -3.04476,1.22074 -11.63506,1.76086 -15.3295,0.96422 z" id="path1979" style="stroke-width:1.28906" /><g style="fill:none" id="g2113" transform="matrix(16.666667,0,0,16.666667,2.4263528,-5.4083838)" />
</svg>
