<svg xmlns="http://www.w3.org/2000/svg" xml:space="preserve" width="512" height="512" fill="currentColor" viewBox="0 0 256 256"><path fill="#ccc" d="M206.122 237.507c-2.765-.596-7.53-2.498-10.704-4.273-5.452-3.05-76.674-50.516-79.234-52.807-3.796-3.397-5.016-5.728-5.016-9.588 0-3.965 1.155-6.353 6.005-12.416 7.655-9.57 15.426-17.212 34.798-34.218 24.628-21.621 33.867-31.606 33.867-36.603 0-4.56-3.942-5.762-8.735-2.663-1.448.937-19.383 13.34-39.856 27.564-46.775 32.496-46.86 32.555-50.504 34.846-12.034 7.57-21.933 9.885-33.786 7.903-7.932-1.327-39.963-10.859-44.982-13.386-7.018-3.534-10.02-10.552-6.492-15.177 1.682-2.204 3.57-3.352 11.438-6.949 5.518-2.523 103.064-44.366 185.623-79.624 8.336-3.56 17.603-7.552 20.593-8.871 8.948-3.947 19.225-6.056 24.683-5.067 5.57 1.01 9.223 3.902 11.213 8.876.865 2.163.99 3.273.964 8.506-.03 5.553-1.002 12.376-12.589 88.27-6.906 45.24-12.882 84.058-13.278 86.265-1.864 10.37-5.534 16.025-12.116 18.664-2.362.947-9.026 1.366-11.892.748z"/></svg>