<svg xmlns="http://www.w3.org/2000/svg" width="512" height="512" fill="currentColor"><path d="M472.19 165.72a19.177 19.177 0 0 1 0 27.155l-63.17 63.13 63.17 63.132a19.201 19.201 0 0 1-27.155 27.154l-63.131-63.169-63.13 63.17a19.201 19.201 0 0 1-27.155-27.155l63.169-63.131-63.17-63.13a19.201 19.201 0 1 1 27.155-27.156l63.131 63.17 63.13-63.17a19.177 19.177 0 0 1 27.155 0"/><path fill="#f2f2f2" d="M249.181 85.327a19.177 19.177 0 0 1 10.854 17.26v306.832a19.177 19.177 0 0 1-31.143 14.958l-90.63-72.489H49.087a19.177 19.177 0 0 1-19.177-19.177V179.295a19.177 19.177 0 0 1 19.177-19.177h89.173l90.631-72.49a19.177 19.177 0 0 1 20.29-2.3m-27.5 57.147-64.742 51.778a19.177 19.177 0 0 1-11.967 4.219H68.265v115.062h76.708a19.177 19.177 0 0 1 11.967 4.22l64.741 51.777z"/></svg>
