<svg xmlns="http://www.w3.org/2000/svg" xml:space="preserve" width="512" height="512" fill="currentColor" viewBox="0 0 256 256"><path fill="#ccc" d="M61.486 244.76c-15.481-1.959-29.321-8.551-40.431-19.259-9.281-8.945-16.311-21.24-19.287-33.734C.223 185.281-.01 183.105 0 175.244c.008-6.23.095-7.728.62-10.761 1.82-10.501 5.05-18.862 10.562-27.338 2.102-3.233 5.69-7.807 7.479-9.534l1.105-1.067 3.768 3.575a491.715 491.715 0 0 1 8.243 8.072l4.476 4.497-1.918 2.281c-13.674 16.265-15.031 38.777-3.39 56.22 12.96 19.422 38.2 26.24 59.196 15.99 13.06-6.375 22.295-18.374 25.276-32.84.536-2.6.621-3.992.718-11.758l.11-8.807h49.613l1.22-1.709c1.57-2.2 4.823-5.286 6.91-6.554 5.268-3.2 12.042-4.253 17.864-2.777 6.294 1.596 12.198 6.267 15.041 11.899 4.578 9.068 2.918 19.854-4.164 27.073-8.04 8.193-21.26 9.18-30.449 2.273-1.976-1.486-4.316-3.95-5.438-5.725l-.8-1.265h-13.704l-13.704-.001-.316 1.57c-2.23 11.1-6.717 20.938-13.607 29.838-2.457 3.174-7.818 8.623-11.04 11.222-9.664 7.794-20.371 12.579-32.995 14.744-4.384.752-14.7.966-19.19.398zm116.538-.01c-9.293-1.177-17.572-3.85-25.637-8.273-2.053-1.126-7.033-4.309-8.004-5.115-.045-.038 3.016-4.23 6.803-9.317l6.946-9.328c.032-.043 1.058.59 2.28 1.408 14.705 9.843 34.112 10.395 49.328 1.404 3.504-2.07 6.167-4.127 9.103-7.03 7.209-7.13 11.656-15.765 13.471-26.154.547-3.128.461-11.526-.152-14.885-1.795-9.84-6.105-18.08-13.14-25.12-3.714-3.715-7.079-6.14-11.889-8.563-6.572-3.312-11.946-4.673-19.305-4.891-5.39-.16-8.554.153-13.088 1.296-4.646 1.17-8.106 2.698-14.93 6.591-5.84 3.333-6.26 3.527-6.604 3.058-.203-.276-5.57-8.148-11.928-17.495l-11.56-16.994-2.092-.008c-4.158-.014-8.335-1.23-11.933-3.473-14.328-8.93-14.684-29.721-.668-39.047 10.772-7.167 25.072-4.315 32.263 6.436 4.139 6.188 5.036 14.148 2.387 21.172l-.713 1.892 1.054 1.522c.58.837 3.293 4.81 6.03 8.828 2.736 4.018 5.095 7.306 5.242 7.306.146 0 .68-.173 1.185-.384 3.1-1.296 10.615-3.055 15.996-3.745 3.754-.481 12.282-.408 16.387.141 12.526 1.675 23.69 6.213 33.583 13.652 3.359 2.525 9.342 8.335 12.049 11.7 7.76 9.645 12.647 20.593 14.735 33.004.742 4.41 1.005 12.564.56 17.348a70.085 70.085 0 0 1-25.969 48.226c-9.465 7.583-20.81 12.525-33.472 14.58-3.807.618-14.31.766-18.318.258zM67.722 198.557c-10.102-.996-18.284-8.06-20.678-17.85-.696-2.848-.756-7.423-.135-10.278 1.555-7.145 6.339-13.07 13.072-16.189 2.986-1.383 5.197-1.923 8.697-2.125l2.868-.165 5.462-8.03c3.004-4.417 5.498-8.132 5.542-8.256.044-.125-.748-1.01-1.761-1.967-6.998-6.617-11.52-12.665-15.394-20.586-2.569-5.252-3.818-8.561-5.036-13.343-3.098-12.161-3.098-23.149 0-35.31 2.354-9.238 7.239-18.905 13.368-26.455 4.388-5.403 11.198-11.375 17.346-15.208 27.007-16.839 62.349-13.185 85.042 8.79 8.1 7.845 13.706 16.362 17.5 26.592 2.383 6.424 4.231 16.287 4.243 22.639l.002 1.297h-23.166l-.178-2.39c-1.145-15.38-8.432-28.106-20.859-36.428-5.171-3.462-11.46-5.979-17.771-7.11-4.47-.803-11.454-.796-15.98.015-10.293 1.844-20.291 7.458-26.94 15.127-5.622 6.484-9.438 14.42-10.939 22.748-.817 4.537-.824 11.505-.015 15.989 2.293 12.705 9.657 24.022 19.994 30.726 1.13.734 4.602 2.809 7.714 4.611 3.112 1.803 5.61 3.41 5.55 3.572-.06.161-5.54 8.26-12.177 17.997s-12.122 17.845-12.189 18.018c-.066.173.19 1.14.57 2.15 1.337 3.552 1.805 7.994 1.227 11.657-1.292 8.189-6.748 15.048-14.463 18.183-2.904 1.18-7.528 1.874-10.516 1.58z"/></svg>