<svg width="512" height="512" viewBox="0 0 5.3333333 5.3333333" xmlns="http://www.w3.org/2000/svg">
<path style="fill:#cccccc;stroke-width:0.00996986" d="M 0.06118387,5.2666477 C 0.04303239,5.2555817 0.02172247,5.2310664 0.01382732,5.2121713 -0.00540186,5.1661489 -0.00440934,5.0737151 0.01577024,5.0311875 0.04787821,4.963526 -0.04193739,4.9678081 1.3449037,4.9678081 h 1.2566954 l -1.465e-4,0.1171456 c -1.675e-4,0.1330815 -0.00847,0.1586751 -0.05981,0.1844265 -0.032517,0.016309 -0.1124825,0.01743 -1.2411058,0.01741 -1.19240094,-2e-5 -1.20673224,-2.542e-4 -1.23935293,-0.020143 z m 2.76473653,0.01354 C 2.7469249,5.2629844 2.731207,5.2302534 2.731207,5.0829564 V 4.9678082 h 1.2566942 c 1.3802968,0 1.2976324,-0.00369 1.3303089,0.059493 0.00924,0.017854 0.015123,0.056049 0.015123,0.098055 0,0.082509 -0.025424,0.1296287 -0.080104,0.1484618 C 5.2271781,5.282788 4.9268618,5.285571 4.0322696,5.285123 3.3797443,5.2847966 2.8368868,5.282573 2.82592,5.280183 Z M 0.20883897,4.6853949 V 4.5325896 l 0.1021907,0.023037 c 0.4746832,0.1070078 0.93718213,0.1080878 1.40772373,0.00328 0.3124358,-0.069586 0.4841694,-0.062 0.7957718,0.035153 l 0.087073,0.027148 V 4.7297008 4.838194 H 1.4052181 0.20883807 Z M 2.731207,4.7298939 V 4.6215874 l 0.1255581,-0.036916 c 0.1937486,-0.056964 0.2632552,-0.068561 0.4128129,-0.068876 0.1386146,-2.921e-4 0.1696685,0.00386 0.3987934,0.05328 0.2418948,0.052179 0.3597314,0.06404 0.6330845,0.063728 0.2722414,-3.101e-4 0.3940999,-0.012193 0.6579574,-0.064156 0.082279,-0.016204 0.1529639,-0.02948 0.1570765,-0.029502 0.00412,-2.23e-5 0.00747,0.067256 0.00747,0.1495072 V 4.8382009 H 3.9275846 2.7312046 Z M 0.74720997,4.4978957 c -0.105096,-0.010728 -0.3586025,-0.052921 -0.4586124,-0.076331 l -0.074774,-0.017502 -0.0028,-0.1169209 c -0.00154,-0.064306 6.983e-4,-0.1168976 0.00499,-0.1168695 0.00429,3e-5 0.059387,0.01099 0.1224469,0.024361 0.272548,0.057789 0.3841924,0.069085 0.68791863,0.069602 0.3149952,5.364e-4 0.3983561,-0.00796 0.6779487,-0.069122 0.3279202,-0.071731 0.4689954,-0.066948 0.7901094,0.026791 l 0.1071756,0.031287 V 4.37091 c 0,0.089821 -0.00296,0.1167009 -0.012462,0.1134219 -0.1879256,-0.064803 -0.3631962,-0.0976 -0.5209298,-0.097477 -0.1415054,1.107e-4 -0.1899553,0.00659 -0.4287028,0.057398 -0.087735,0.018668 -0.2200841,0.040911 -0.2941102,0.049431 -0.1454622,0.016739 -0.45417743,0.018913 -0.59819003,0.00421 z m 3.31496983,0.00509 C 3.9465415,4.4910936 3.7861163,4.464487 3.6484318,4.4343632 3.3851455,4.3767589 3.2502848,4.3701099 3.0544903,4.4050767 c -0.071623,0.012791 -0.2594871,0.06167 -0.3058361,0.079574 -0.016014,0.00618 -0.017447,-0.00297 -0.017447,-0.1115142 v -0.118254 l 0.1271153,-0.036973 c 0.1998693,-0.058134 0.272033,-0.070271 0.4162407,-0.070003 0.1143454,2.124e-4 0.1565087,0.0057 0.3580494,0.046676 0.3121937,0.06346 0.4658916,0.078608 0.7336474,0.072307 0.235915,-0.00555 0.3848516,-0.022013 0.605783,-0.066956 0.080332,-0.016342 0.1473782,-0.029712 0.1489914,-0.029712 0.00162,0 0.00293,0.052803 0.00293,0.1173418 v 0.1173423 l -0.1271167,0.027387 c -0.2541072,0.054748 -0.3783448,0.068563 -0.6455468,0.071786 -0.1370852,0.00166 -0.2671916,0.00116 -0.2891252,-0.00109 z M 2.6015991,3.6476531 C 2.5326943,3.6327223 2.4971837,3.6138884 2.448321,3.5663586 2.41246,3.5314756 2.362645,3.4437045 2.362421,3.4150067 c -7.97e-5,-0.0097 0.068221,-0.012462 0.3085252,-0.012462 h 0.3086226 l -0.0149,0.042372 C 2.9111855,3.5970043 2.759289,3.6818231 2.6015991,3.6476531 Z M 2.2490146,3.262243 C 2.2242306,3.242748 2.2227456,3.236675 2.2227456,3.1547931 c 0,-0.062413 0.00435,-0.093009 0.01552,-0.1089445 l 0.01552,-0.022158 h 0.4131816 c 0.4924722,0 0.4530622,-0.01121 0.4530622,0.1288843 0,0.1396378 0.032035,0.1303314 -0.4486425,0.1303314 -0.3856318,0 -0.3967989,-5.463e-4 -0.4223723,-0.020663 z M 2.3449006,2.7810187 C 2.3419809,2.6474819 2.3193608,2.5485687 2.2673513,2.4419089 2.2332935,2.3720642 2.2103779,2.3417883 2.0639814,2.1732176 1.8793201,1.9605863 1.8253676,1.6570451 1.9240655,1.3860405 c 0.091219,-0.2504689 0.31638,-0.44633458 0.5764641,-0.50146148 0.036397,-0.00771 0.1136865,-0.014104 0.171756,-0.0142 0.1328772,-2.184e-4 0.2300969,0.02316 0.3578022,0.086037 0.080245,0.039509 0.1089909,0.060954 0.1905747,0.14216868 0.157845,0.157131 0.226221,0.3079358 0.2357453,0.5199418 0.010937,0.243447 -0.057911,0.4241699 -0.2321279,0.6093311 C 3.0611214,2.4012652 2.9904227,2.5739154 2.9904227,2.7989489 v 0.095134 H 2.8608148 2.731207 V 2.5401535 2.1862245 h 0.084744 c 0.068256,0 0.088229,-0.00348 0.1026575,-0.017914 0.023435,-0.023435 0.1216637,-0.2525887 0.1216637,-0.2838239 0,-0.04965 -0.069191,-0.076496 -0.1023944,-0.039729 -0.00866,0.0096 -0.034586,0.06119 -0.057599,0.1146532 l -0.041844,0.097206 H 2.6672077 2.4959805 L 2.4526313,1.951061 C 2.4064769,1.8386745 2.3874554,1.8188412 2.3377815,1.8313084 c -0.015679,0.00393 -0.030087,0.017246 -0.03627,0.033508 -0.00881,0.02319 -0.0023,0.0456 0.046429,0.1595229 0.032016,0.074859 0.065803,0.138928 0.077633,0.1472137 0.014079,0.00986 0.046364,0.014671 0.098486,0.014671 h 0.077541 V 2.5401535 2.8940827 L 2.4744839,2.89398 2.3473685,2.8938773 2.3448992,2.7810184 Z M 1.3204754,2.4937467 c -0.032155,-0.017587 -0.044864,-0.039746 -0.044864,-0.078216 0,-0.019838 0.00561,-0.043485 0.012462,-0.052551 0.018314,-0.024221 0.3063677,-0.1867503 0.3306773,-0.1865783 0.061682,4.367e-4 0.1020321,0.05875 0.081982,0.1184759 -0.01002,0.029848 -0.029761,0.044377 -0.1659057,0.1221019 -0.1555129,0.088782 -0.1777952,0.096762 -0.2143516,0.076767 z M 3.8126445,2.4246955 C 3.6585385,2.3355614 3.628492,2.3094501 3.628492,2.2646599 c 0,-0.039773 0.047658,-0.088443 0.08647,-0.088305 0.043021,1.535e-4 0.3303871,0.1731223 0.3430783,0.2065026 0.02136,0.05618 -0.021784,0.1224013 -0.079745,0.1224013 -0.014836,0 -0.087259,-0.035222 -0.1656508,-0.080563 z M 1.1032492,1.7274906 c -0.056122,-0.044145 -0.038896,-0.1291774 0.03035,-0.1498166 0.023081,-0.00688 0.099502,-0.00988 0.2002251,-0.00786 l 0.1628963,0.00326 0.024039,0.027973 c 0.032413,0.03772 0.032231,0.089364 -4.337e-4,0.1220277 -0.02421,0.02421 -0.026434,0.024471 -0.2080219,0.024471 -0.1688249,0 -0.1855967,-0.00161 -0.2090541,-0.020062 z m 2.710571,-0.010613 c -0.028859,-0.034297 -0.033112,-0.074103 -0.011253,-0.1053109 0.027316,-0.038999 0.062518,-0.045002 0.2442472,-0.041651 l 0.1716694,0.00317 0.024039,0.027973 c 0.032834,0.038208 0.031941,0.086029 -0.00225,0.1202151 l -0.026284,0.026284 H 4.0268121 3.8396311 Z M 1.5946459,1.1423448 C 1.5630998,1.1299886 1.3193737,0.98546712 1.2980433,0.96646892 c -0.05238,-0.0466531 -0.012453,-0.1461116 0.058655,-0.1461116 0.03515,0 0.2987077,0.1447383 0.330169,0.18131918 0.025359,0.029486 0.02277,0.089393 -0.00499,0.1152988 -0.02468,0.023037 -0.063999,0.034471 -0.087236,0.025369 z m 2.0583176,-0.027424 c -0.029457,-0.029457 -0.032795,-0.083279 -0.00703,-0.1132439 0.0096,-0.011158 0.080577,-0.056519 0.157736,-0.10080278 0.1576692,-0.090491 0.1929519,-0.098839 0.2338361,-0.05532 0.028538,0.030378 0.031574,0.084717 0.0063,0.1126513 -0.00956,0.010562 -0.079933,0.055649 -0.1563879,0.10019418 -0.1558893,0.090825 -0.1915549,0.099423 -0.2344569,0.056521 z M 2.004544,0.67330232 c -0.03895,-0.0392016 -0.1805919,-0.2926559 -0.1805919,-0.3231504 0,-0.060122 0.071996,-0.1032567 0.1255292,-0.075208 0.04119,0.021582 0.1965981,0.2889163 0.1974164,0.3395975 0.00124,0.077116 -0.087656,0.1138123 -0.1423537,0.0587609 z m 1.221728,0.016126 c -0.01011,-0.00588 -0.024661,-0.025715 -0.032337,-0.044084 -0.017915,-0.042877 -0.01388,-0.053223 0.087783,-0.2250654 0.098356,-0.1662518 0.1305035,-0.1879205 0.1964608,-0.1324211 0.050002,0.042074 0.043407,0.072792 -0.050763,0.2364432 -0.04479,0.077838 -0.090776,0.1492757 -0.1021907,0.1587498 -0.023346,0.019377 -0.071277,0.022466 -0.098954,0.00637 z m -0.6154699,-0.177369 -0.029143,-0.0291425 v -0.185662 c 0,-0.1838296 2.412e-4,-0.1859036 0.024471,-0.2101335 0.032663,-0.032664 0.084308,-0.032847 0.1220277,-4.333e-4 l 0.027973,0.024038 0.00326,0.1628963 c 0.00375,0.1872622 -0.00437,0.2299955 -0.048018,0.2525667 -0.042671,0.022066 -0.067931,0.018517 -0.1005775,-0.01413 z" id="path299" />
</svg>
