<svg xmlns="http://www.w3.org/2000/svg" width="512" height="512" fill="currentColor" viewBox="0 0 256 256"><path fill="#b3b3b3" fill-rule="evenodd" d="M93.14 162.86a8.025 8.025 0 0 0-11.348 0L16.05 228.603v-44.426a8.025 8.025 0 0 0-16.05 0v63.799A8.025 8.025 0 0 0 8.025 256h63.8a8.025 8.025 0 0 0 0-16.05H27.397l65.741-65.742a8.025 8.025 0 0 0 0-11.347m69.722 0a8.025 8.025 0 0 1 11.347 0l65.742 65.741v-44.426a8.025 8.025 0 1 1 16.05 0v63.799a8.025 8.025 0 0 1-8.025 8.025h-63.8a8.025 8.025 0 0 1 0-16.05h44.427l-65.741-65.742a8.025 8.025 0 0 1 0-11.347m0-69.722a8.025 8.025 0 0 0 11.347 0l65.742-65.741v44.426a8.025 8.025 0 1 0 16.05 0V8.025A8.025 8.025 0 0 0 247.975 0h-63.8a8.025 8.025 0 0 0 0 16.05h44.427l-65.741 65.742a8.025 8.025 0 0 0 0 11.347m-69.722 0a8.025 8.025 0 0 1-11.347 0L16.05 27.398v44.426a8.025 8.025 0 0 1-16.05 0V8.025A8.025 8.025 0 0 1 8.025 0h63.8a8.025 8.025 0 0 1 0 16.05H27.397l65.741 65.742a8.025 8.025 0 0 1 0 11.347"/></svg>